<?xml version="1.0" encoding="utf-8"?>
		<!-- Generator: Adobe Illustrator 18.0.0, SVG Export Plug-In . SVG Version: 6.00 Build 0)  -->
		<!DOCTYPE svg PUBLIC "-//W3C//DTD SVG 1.1//EN" "http://www.w3.org/Graphics/SVG/1.1/DTD/svg11.dtd">
<svg version="1.1" id="Слой_1" xmlns="http://www.w3.org/2000/svg" xmlns:xlink="http://www.w3.org/1999/xlink" x="0px" y="0px"
	 viewBox="0 0 48 48" enable-background="new 0 0 48 48" xml:space="preserve">
<g>
	<radialGradient id="SVGID_1_" cx="14.0608" cy="51.7172" r="63.6056" gradientUnits="userSpaceOnUse">
		<stop  offset="9.693880e-002" style="stop-color:#FFD879"/>
		<stop  offset="0.1539" style="stop-color:#FCCB76"/>
		<stop  offset="0.2583" style="stop-color:#F5AA6C"/>
		<stop  offset="0.3976" style="stop-color:#E9755E"/>
		<stop  offset="0.449" style="stop-color:#E45F58"/>
		<stop  offset="0.6786" style="stop-color:#D22A9C"/>
		<stop  offset="1" style="stop-color:#6968DF"/>
	</radialGradient>
	<path fill="url(#SVGID_1_)" d="M48,38.1c0,5.4-4.4,9.9-9.9,9.9H9.9C4.4,48,0,43.6,0,38.1V9.9C0,4.4,4.4,0,9.9,0h28.3
		C43.6,0,48,4.4,48,9.9V38.1z"/>
	<g>
		<path fill="#FFFFFF" d="M30.9,5.9H17.1c-6.2,0-11.2,5-11.2,11.2v13.9c0,6.2,5,11.2,11.2,11.2h13.9c6.2,0,11.2-5,11.2-11.2V17.1
			C42.1,10.9,37.1,5.9,30.9,5.9z M38.6,29.6c0,5-4,9-9,9H18.4c-5,0-9-4-9-9V18.4c0-5,4-9,9-9h11.2c5,0,9,4,9,9V29.6z"/>
		<path fill="#FFFFFF" d="M24.5,14.5c-5.3,0-9.5,4.3-9.5,9.5c0,5.3,4.3,9.5,9.5,9.5c5.3,0,9.5-4.3,9.5-9.5
			C34,18.8,29.8,14.5,24.5,14.5z M24.5,29.8c-3.2,0-5.7-2.6-5.7-5.7c0-3.2,2.6-5.7,5.7-5.7c3.2,0,5.7,2.6,5.7,5.7
			C30.2,27.2,27.7,29.8,24.5,29.8z"/>
		<circle fill="#FFFFFF" cx="33.4" cy="14.4" r="2.4"/>
	</g>
</g>
</svg>
