<?xml version="1.0" encoding="utf-8"?>
<!-- Generator: Adobe Illustrator 18.0.0, SVG Export Plug-In . SVG Version: 6.00 Build 0)  -->
<!DOCTYPE svg PUBLIC "-//W3C//DTD SVG 1.1//EN" "http://www.w3.org/Graphics/SVG/1.1/DTD/svg11.dtd">
<svg version="1.1" id="Слой_1" xmlns="http://www.w3.org/2000/svg" xmlns:xlink="http://www.w3.org/1999/xlink" x="0px" y="0px"
	 viewBox="0 0 48 48" enable-background="new 0 0 48 48" xml:space="preserve">
<g>
	<circle fill="#2164AB" cx="24" cy="24" r="24"/>
	<g>
		<path fill="#FFFFFF" d="M32.7,29.9c0.4,0,0.9-0.3,1.2-0.8c0.4-0.5,0.7-1.2,0.9-2.1c0.2-0.9,0.3-1.9,0.3-3c0-2.2-0.5-4.1-1.4-5.8
			c-1-1.7-2.3-3-4-4c-1.7-1-3.6-1.4-5.8-1.4c-2.2,0-4.1,0.5-5.8,1.4c-1.7,1-3,2.3-4,4c-1,1.7-1.4,3.6-1.4,5.8s0.5,4.1,1.4,5.8
			c1,1.7,2.3,3,4,4c1.7,1,3.6,1.4,5.8,1.4c0.7,0,1.5-0.1,2.4-0.3c0.9-0.2,1.6-0.4,2.2-0.7c0.4-0.2,0.7-0.2,0.9-0.2
			c0.4,0,0.7,0.1,0.9,0.4c0.2,0.3,0.3,0.6,0.3,1.1c0,0.5-0.3,0.9-0.9,1.3c-0.6,0.4-1.4,0.7-2.4,0.9c-1,0.2-2.2,0.3-3.5,0.3
			c-2.7,0-5.2-0.6-7.3-1.8c-2.1-1.2-3.8-2.9-5-5c-1.2-2.1-1.8-4.6-1.8-7.3s0.6-5.2,1.8-7.3c1.2-2.1,2.9-3.8,5-5
			c2.1-1.2,4.6-1.8,7.3-1.8s5.1,0.6,7.3,1.8c2.1,1.2,3.8,2.9,5,5s1.8,4.6,1.8,7.3c0,1.7-0.2,3.2-0.7,4.6c-0.5,1.3-1.1,2.4-2,3.1
			c-0.9,0.7-1.8,1.1-2.9,1.1c-1,0-1.9-0.3-2.5-0.8c-0.6-0.6-1-1.3-1-2.2v-1.2c-0.5,1-1.3,1.7-2.3,2.4c-1,0.6-2,0.9-3,0.9
			c-1.4,0-2.7-0.3-3.9-1c-1.1-0.7-2-1.6-2.7-2.8c-0.6-1.2-1-2.5-1-4c0-1.5,0.3-2.8,1-4c0.7-1.2,1.6-2.1,2.7-2.8c1.2-0.7,2.5-1,4-1
			c1.5,0,2.8,0.3,4,1c1.2,0.7,2.1,1.6,2.8,2.8c0.7,1.2,1,2.5,1,4v4.4C31.8,29.4,32.1,29.9,32.7,29.9z M21.5,19.7
			c-0.7,0.4-1.3,1-1.7,1.7c-0.4,0.7-0.6,1.6-0.6,2.5c0,0.9,0.2,1.8,0.6,2.5c0.4,0.7,1,1.3,1.7,1.7c0.7,0.4,1.6,0.6,2.5,0.6
			c0.9,0,1.8-0.2,2.5-0.6c0.7-0.4,1.3-1,1.7-1.7c0.4-0.7,0.6-1.6,0.6-2.5c0-0.9-0.2-1.8-0.6-2.5c-0.4-0.7-1-1.3-1.7-1.7
			c-0.7-0.4-1.6-0.6-2.5-0.6C23.1,19.1,22.2,19.3,21.5,19.7z"/>
	</g>
</g>
</svg>
