<?xml version="1.0" encoding="utf-8"?>
<!-- Generator: Adobe Illustrator 18.0.0, SVG Export Plug-In . SVG Version: 6.00 Build 0)  -->
<!DOCTYPE svg PUBLIC "-//W3C//DTD SVG 1.1//EN" "http://www.w3.org/Graphics/SVG/1.1/DTD/svg11.dtd">
<svg version="1.1" id="Слой_1" xmlns="http://www.w3.org/2000/svg" xmlns:xlink="http://www.w3.org/1999/xlink" x="0px" y="0px"
	 viewBox="0 0 48 48" enable-background="new 0 0 48 48" xml:space="preserve">
<g>
	<g>
		<path fill="#D97400" d="M24,19.9c2.3,0,4.1-1.8,4.1-4.1c0-2.3-1.8-4.1-4.1-4.1c-2.3,0-4.2,1.9-4.1,4.2
			C19.9,18.1,21.7,19.9,24,19.9z"/>
		<path fill="#D97400" d="M24,0C10.7,0,0,10.7,0,24s10.7,24,24,24s24-10.7,24-24S37.3,0,24,0z M24,7.3c4.7,0,8.4,3.8,8.4,8.6
			c0,4.6-3.8,8.4-8.5,8.3c-4.6,0-8.4-3.8-8.4-8.5C15.6,11.1,19.4,7.3,24,7.3z M33.5,27.5c-1,1.1-2.3,1.8-3.7,2.4
			c-1.3,0.5-2.7,0.8-4.2,0.9c0.2,0.2,0.3,0.3,0.4,0.5c1.9,1.9,3.9,3.9,5.8,5.8c0.7,0.7,0.8,1.5,0.4,2.2c-0.4,0.8-1.3,1.4-2.1,1.3
			c-0.5,0-1-0.3-1.4-0.7c-1.5-1.5-2.9-2.9-4.4-4.4c-0.4-0.4-0.6-0.4-1,0c-1.5,1.5-2.9,3-4.4,4.5c-0.7,0.7-1.5,0.8-2.2,0.4
			c-0.8-0.4-1.4-1.2-1.3-2.1c0-0.6,0.3-1,0.7-1.4c1.9-1.9,3.8-3.8,5.7-5.7c0.1-0.1,0.2-0.3,0.4-0.5c-2.6-0.3-4.9-0.9-6.9-2.5
			c-0.2-0.2-0.5-0.4-0.7-0.6c-0.9-0.8-1-1.8-0.3-2.8c0.6-0.8,1.6-1.1,2.6-0.6c0.2,0.1,0.4,0.2,0.6,0.3c3.7,2.6,8.8,2.6,12.6,0.1
			c0.4-0.3,0.8-0.5,1.2-0.6c0.9-0.2,1.7,0.1,2.2,0.9C34.2,26,34.2,26.8,33.5,27.5z"/>
	</g>
</g>
</svg>
