<?xml version="1.0" encoding="utf-8"?>
<!-- Generator: Adobe Illustrator 18.0.0, SVG Export Plug-In . SVG Version: 6.00 Build 0)  -->
<!DOCTYPE svg PUBLIC "-//W3C//DTD SVG 1.1//EN" "http://www.w3.org/Graphics/SVG/1.1/DTD/svg11.dtd">
<svg version="1.1" width="105px" height="140px" xmlns="http://www.w3.org/2000/svg" xmlns:xlink="http://www.w3.org/1999/xlink" x="0px" y="0px"
	 viewBox="0 0 105 140" enable-background="new 0 0 105 140" xml:space="preserve">

	<defs>

        <style>
            .st0{}
            .st1{
                stroke-dasharray: 500;
                stroke-dashoffset:500;
                animation: dash linear 2.5s infinite;
            }
            @keyframes dash{
                from{
                    stroke-dashoffset: 1000;
                }
                to{
                    stroke-dashoffset:0;
                }
            }

	    </style>
	 </defs>

	<path class="st1" fill="none" stroke="#009245" stroke-width="2" stroke-miterlimit="10" d="M80.2,49.6c0.3-0.7,0.4-1.1,0.4-1.9
	c0-3.6-2.9-5.7-6.5-5.7h-8.8l-3-3.7l4.2-4.8c5.8,2.3,12.7,1,17.5-3.7c6.4-6.3,6.4-16.7,0-23c-6.4-6.3-16.7-6.4-23,0
	c-4.7,4.7-5.9,11.6-3.6,17.4l-4.2,4.2l-4.2-4.2c2.3-5.8,1.1-12.7-3.6-17.4c-6.4-6.3-16.7-6.3-23,0c-6.4,6.3-6.4,16.6,0,23
	c4.7,4.7,11.6,5.9,17.5,3.6l4.2,4.9l-3,3.7h-9.4c-3.6,0-6.5,2.2-6.5,5.8c0,0.8,0.2,1.3,0.4,2C11.5,58.2,2.6,73.1,2.6,90.1
	c0,26.8,21.2,47.9,49.8,47.9c28.8,0,50.2-21.5,50.2-48C102.6,72.9,93.9,58,80.2,49.6z M52.8,115.5c-14.5,0-24.3-11.9-24.3-25.4
	c0-13.9,9-25.4,24-25.4c14.5,0,24.3,11.9,24.3,25.4C76.8,104,67.8,115.5,52.8,115.5z"/>
</svg>
