<svg xmlns="http://www.w3.org/2000/svg" viewBox="0 0 48 48"><style>.a{fill:#FFF;}</style><radialGradient cx="119.1" cy="45.8" r="63.6" gradientUnits="userSpaceOnUse"><stop offset="9.693880e-002" stop-color="#FFD879"/><stop offset="0.1539" stop-color="#FCCB76"/><stop offset="0.2583" stop-color="#F5AA6C"/><stop offset="0.3976" stop-color="#E9755E"/><stop offset="0.449" stop-color="#E45F58"/><stop offset="0.6786" stop-color="#D22A9C"/><stop offset="1" stop-color="#6968DF"/></radialGradient><path d="M153 32.2c0 5.4-4.4 9.9-9.9 9.9h-28.3c-5.4 0-9.9-4.4-9.9-9.9V4c0-5.4 4.4-9.9 9.9-9.9h28.3c5.4 0 9.9 4.4 9.9 9.9V32.2z" fill="url(#SVGID_1_)"/><path d="M135.9 0h-13.9c-6.2 0-11.2 5-11.2 11.2V25c0 6.2 5 11.2 11.2 11.2h13.9c6.2 0 11.2-5 11.2-11.2V11.2C147.1 5 142.1 0 135.9 0zM143.6 23.7c0 5-4 9-9 9h-11.2c-5 0-9-4-9-9V12.5c0-5 4-9 9-9h11.2c5 0 9 4 9 9V23.7z" class="a"/><path d="M129.5 8.6c-5.3 0-9.5 4.3-9.5 9.5 0 5.3 4.3 9.5 9.5 9.5 5.3 0 9.5-4.3 9.5-9.5C139 12.9 134.8 8.6 129.5 8.6zM129.5 23.9c-3.2 0-5.7-2.6-5.7-5.7 0-3.2 2.6-5.7 5.7-5.7 3.2 0 5.7 2.6 5.7 5.7C135.2 21.3 132.7 23.9 129.5 23.9z" class="a"/><circle cx="138.4" cy="8.5" r="2.4" class="a"/><circle cx="24" cy="24" r="24" fill="#4D76A1"/><path d="M23.1 34.5H25c0 0 0.6-0.1 0.9-0.4 0.3-0.3 0.3-0.8 0.3-0.8s0-2.5 1.1-2.9c1.2-0.4 2.6 2.4 4.2 3.5 1.2 0.8 2.1 0.6 2.1 0.6l4.2-0.1c0 0 2.2-0.1 1.2-1.9 -0.1-0.1-0.6-1.3-3.1-3.6 -2.6-2.4-2.3-2.1 0.9-6.3 1.9-2.6 2.7-4.2 2.5-4.8 -0.2-0.6-1.7-0.5-1.7-0.5l-4.7 0c0 0-0.4 0-0.6 0.1 -0.3 0.2-0.4 0.5-0.4 0.5s-0.7 2-1.8 3.7c-2.1 3.6-3 3.8-3.3 3.5 -0.8-0.5-0.6-2.1-0.6-3.2 0-3.5 0.5-4.9-1-5.3 -0.5-0.1-0.9-0.2-2.2-0.2 -1.7 0-3.1 0-3.9 0.4 -0.5 0.3-1 0.9-0.7 0.9 0.3 0 1 0.2 1.4 0.7 0.5 0.7 0.5 2.1 0.5 2.1s0.3 4.1-0.7 4.6c-0.6 0.3-1.5-0.4-3.4-3.6 -1-1.7-1.7-3.5-1.7-3.5s-0.1-0.3-0.4-0.5c-0.3-0.2-0.7-0.3-0.7-0.3l-4.5 0c0 0-0.7 0-0.9 0.3 -0.2 0.3 0 0.8 0 0.8s3.5 8.2 7.5 12.4C18.9 34.8 23.1 34.5 23.1 34.5L23.1 34.5z" class="a"/></svg>