<?xml version="1.0" encoding="utf-8"?>
<!-- Generator: Adobe Illustrator 18.0.0, SVG Export Plug-In . SVG Version: 6.00 Build 0)  -->
<!DOCTYPE svg PUBLIC "-//W3C//DTD SVG 1.1//EN" "http://www.w3.org/Graphics/SVG/1.1/DTD/svg11.dtd">
<svg version="1.1" id="Слой_1" xmlns="http://www.w3.org/2000/svg" xmlns:xlink="http://www.w3.org/1999/xlink" x="0px" y="0px"
	 viewBox="0 0 48 48" enable-background="new 0 0 48 48" xml:space="preserve">
<path fill="#4267B2" d="M24,0.4c-13.3,0-24,10.7-24,24C0,36.2,8.5,45.9,19.6,48V33.5h-4.5v-5.8l4.5-0.3v-3.5c0-1.7,0.2-3.3,0.6-4.8
	c0.4-1.5,1.1-2.7,2-3.8c0.9-1.1,2.1-1.9,3.4-2.5c1.4-0.6,3.1-0.9,5.1-0.9c1.2,0,2.3,0.1,3.4,0.3c1.1,0.2,2,0.5,2.8,0.8l-1.5,5.8
	c-1.2-0.5-2.4-0.8-3.7-0.8c-2.8,0-4.2,1.9-4.2,5.6v3.6H34v6.2h-6.5v14.6C39.1,46.5,48,36.5,48,24.4C48,11.1,37.3,0.4,24,0.4z"/>
</svg>
