<?xml version="1.0" encoding="utf-8"?>
<!-- Generator: Adobe Illustrator 18.0.0, SVG Export Plug-In . SVG Version: 6.00 Build 0)  -->
<!DOCTYPE svg PUBLIC "-//W3C//DTD SVG 1.1//EN" "http://www.w3.org/Graphics/SVG/1.1/DTD/svg11.dtd">
<svg version="1.1" id="Слой_1" xmlns="http://www.w3.org/2000/svg" xmlns:xlink="http://www.w3.org/1999/xlink" x="0px" y="0px"
	 viewBox="0 0 48 48" enable-background="new 0 0 48 48" xml:space="preserve">
<g>
	<path fill="#F1005B" d="M31.2,12.8H16.8c-2.3,0-4.1,1.9-4.1,4.1v14.3c0,2.3,1.9,4.1,4.1,4.1h14.3c2.3,0,4.1-1.9,4.1-4.1V16.9
		C35.3,14.6,33.4,12.8,31.2,12.8z M24,31.5c-4.1,0-7.4-3.3-7.4-7.4c0-4.1,3.3-7.4,7.4-7.4c4.1,0,7.4,3.3,7.4,7.4
		C31.4,28.2,28.1,31.5,24,31.5z M31.7,18.2c-1,0-1.8-0.8-1.8-1.8s0.8-1.8,1.8-1.8c1,0,1.8,0.8,1.8,1.8S32.6,18.2,31.7,18.2z"/>
	<path fill="#F1005B" d="M24,19.8c-2.4,0-4.3,1.9-4.3,4.3c0,2.4,1.9,4.3,4.3,4.3c2.4,0,4.3-1.9,4.3-4.3C28.3,21.7,26.4,19.8,24,19.8
		z"/>
	<path fill="#F1005B" d="M24,0C10.7,0,0,10.7,0,24s10.7,24,24,24s24-10.7,24-24S37.3,0,24,0z M38.4,31.2c0,4-3.3,7.3-7.3,7.3H16.8
		c-4,0-7.3-3.3-7.3-7.3V16.9c0-4,3.3-7.3,7.3-7.3h14.3c4,0,7.3,3.3,7.3,7.3V31.2z"/>
</g>
</svg>
