<?xml version="1.0" encoding="utf-8"?>
<!-- Generator: Adobe Illustrator 17.1.0, SVG Export Plug-In . SVG Version: 6.00 Build 0)  -->
<!DOCTYPE svg PUBLIC "-//W3C//DTD SVG 1.1//EN" "http://www.w3.org/Graphics/SVG/1.1/DTD/svg11.dtd">
<svg version="1.1" id="Layer_1" xmlns="http://www.w3.org/2000/svg" xmlns:xlink="http://www.w3.org/1999/xlink" x="0px" y="0px"
	 viewBox="0 0 400 400" enable-background="new 0 0 400 400" xml:space="preserve">
<g fill="#ccc">
	<path d="M308.8,137c-4.8-5-11.3-7.7-18.3-7.7h-25.7c-0.6-0.5-1.2-0.9-1.8-1.3c-18.3-14-40.1-21.3-63.1-21.3s-44.8,7.3-63.1,21.3
		c-0.6,0.5-1.2,0.8-1.8,1.3h-25.7c-7,0-13.5,2.8-18.3,7.7c-9,9.2-9.6,23.9-1.4,34l87.4,108.7c0.5,0.7,0.9,1.2,1.2,1.7
		c4.7,7.5,12.8,11.9,21.6,11.9c8.9,0,16.9-4.4,21.6-11.9c0.3-0.5,0.7-1,1.2-1.7L310.1,171C318.4,160.8,317.8,146.2,308.8,137z
		 M200,114.6c41.7,0,79,27.4,91.5,67l-5,6.1c-4.8-18.1-15.2-34.4-29.8-46.4c-15.9-13.1-36.1-20.3-56.8-20.3
		c-40.8,0-76.3,27.7-86.6,66.7l-5-6.1C121,142.1,158.3,114.6,200,114.6z M96.9,142.7c3.3-3.4,7.8-5.2,12.6-5.2h16.8
		c-10.4,10.3-18.5,23.1-23.7,36.9l-6.6-8.2C90.3,159.1,90.7,149,96.9,142.7z M216.7,274.8c-0.7,0.9-1.3,1.7-1.8,2.4
		c-3.3,5.2-8.8,8.2-14.9,8.2c-6.1,0-11.7-3-14.9-8.2c-0.5-0.7-1-1.5-1.8-2.4l-66.7-83.2c8.7-38.7,43.5-66.6,83.4-66.6
		c39.8,0,74.7,27.9,83.4,66.6L216.7,274.8z M304,166.1l-6.6,8.3c-5.2-13.8-13.3-26.6-23.7-36.9h16.8c4.8,0,9.3,1.8,12.6,5.2
		C309.3,149,309.7,159,304,166.1z"/>
	<polygon points="168.5,201.1 192.3,201.1 192.3,249.6 207.8,249.6 207.8,201.1 230.5,201.1 230.5,185 168.5,185 	"/>
	<rect x="168.5" y="164.4" width="62" height="15.5"/>
</g>
</svg>
