<?xml version="1.0" encoding="utf-8"?>
<!-- Generator: Adobe Illustrator 17.1.0, SVG Export Plug-In . SVG Version: 6.00 Build 0)  -->
<!DOCTYPE svg PUBLIC "-//W3C//DTD SVG 1.1//EN" "http://www.w3.org/Graphics/SVG/1.1/DTD/svg11.dtd">
<svg version="1.1" id="Layer_1" xmlns="http://www.w3.org/2000/svg" xmlns:xlink="http://www.w3.org/1999/xlink" x="0px" y="0px"
	 viewBox="0 0 425 110" enable-background="new 0 0 425 110" xml:space="preserve">
<g fill="#fff">
	<g>
		<g>
			<path d="M18,31.1h-4.4c0.3,2,0.5,3.6,0.5,4.9v17.7H2.8V2.3h11.3v14.5c0,2.2-0.2,4.2-0.5,6.1H18L31,2.3h12.3L30.1,22.8
				c-0.8,1.5-2.1,2.9-3.7,4.1v0.3c1.8,1.2,3.2,2.8,4.3,4.5l13.6,22H31.6L18,31.1z"/>
		</g>
		<g>
			<path d="M79.9,40.2H62.2l-3.7,13.5H46.9L61.7,5.3c0.2-0.9,0.7-1.6,1.4-2.2c0.7-0.5,1.6-0.8,2.5-0.8h10.7c2.1,0,3.5,1,4,3
				l14.8,48.5H83.6L79.9,40.2z M77.4,31.4l-4.3-15.7c-0.6-2.5-0.9-4.1-1-4.8h-2c-0.1,0.5-0.3,1.3-0.5,2.4c-0.2,1.1-0.4,1.9-0.6,2.5
				l-4.3,15.7H77.4z"/>
		</g>
		<g>
			<path d="M136.5,45v8.7H99V45l24.5-34H99.6V2.3h36.4V11l-24.5,34H136.5z"/>
		</g>
		<g>
			<path d="M176.4,11.2h-18.4c-1.4,0-2.5,0.3-3.1,0.9c-0.6,0.6-0.9,1.6-0.9,2.9v8.8h19.7v8.3h-19.7v21.6h-11.4v-41
				c0-3.3,1-5.9,3.1-7.8c2.1-1.9,4.8-2.9,8.2-2.9c10.9,0,18.6,0.3,23.1,0.8L176.4,11.2z"/>
		</g>
		<g>
			<path d="M193.9,53.7h-11.3V2.3h11.3V53.7z"/>
		</g>
		<g>
			<path d="M245.8,2.3v47.3c0,2.7-1.3,4.1-4,4.1h-7.1c-1.1,0-2-0.3-2.7-0.8c-0.6-0.5-1.3-1.4-1.9-2.6l-13.5-27.4
				c-1.7-3.6-2.7-6.3-3.1-8h-0.8c0.3,2.5,0.5,5.2,0.5,8.2v30.6h-10.8V6.4c0-2.7,1.4-4.1,4.1-4.1h6.9c1.1,0,2,0.3,2.7,0.8
				c0.6,0.5,1.3,1.4,1.9,2.6l13,26.6c1.2,2.5,2.5,5.2,3.7,8.3h0.7c-0.3-3.9-0.4-6.8-0.4-8.6V2.3H245.8z"/>
		</g>
		<g>
			<path d="M293.3,11.5h-15.4v42.2h-11.4V11.5h-15.4V2.3h42.1V11.5z"/>
		</g>
		<g>
			<path d="M333.1,44.8l0.5,8.3c-4.7,0.5-12.6,0.7-23.9,0.7c-3.4,0-6.2-0.9-8.2-2.8c-2-1.9-3.1-4.4-3.1-7.6V12.4
				c0-3.2,1.1-5.7,3.1-7.6c2-1.9,4.8-2.8,8.2-2.8c11.2,0,19.2,0.2,23.9,0.7l-0.5,8.4h-19.8c-1.2,0-2.1,0.3-2.7,0.9
				c-0.5,0.6-0.8,1.6-0.8,2.9v7.8h20.5v8.2h-20.5V41c0,1.4,0.3,2.4,0.8,3c0.5,0.6,1.4,0.9,2.7,0.9H333.1z"/>
		</g>
		<g>
			<path d="M374.7,44.1l1,8.4c-4.5,1.4-10,2.1-16.5,2.1c-8,0-13.5-2-16.8-6c-3.2-4-4.8-10.9-4.8-20.6c0-9.8,1.6-16.7,4.8-20.6
				c3.2-4,8.8-6,16.8-6c5.8,0,10.9,0.6,15.4,1.7l-1,8.5c-4-0.2-8.8-0.4-14.5-0.4c-3.7,0-6.3,1.2-7.6,3.5c-1.4,2.4-2.1,6.8-2.1,13.2
				c0,6.5,0.7,10.9,2.1,13.2c1.4,2.4,3.9,3.5,7.6,3.5C366.1,44.8,371.3,44.5,374.7,44.1z"/>
		</g>
		<g>
			<path d="M422.2,2.3v51.4h-11.3v-23h-18.2v23h-11.3V2.3h11.3V22h18.2V2.3H422.2z"/>
		</g>
	</g>
	<g>
		<g>
			<path d="M7.8,95.6v0.1c0.3,0,0.6,0.1,0.9,0.2C9,96,9.3,96.1,9.5,96.2c0.2,0.1,0.5,0.3,0.7,0.6c0.2,0.3,0.4,0.5,0.6,0.7
				c0.2,0.2,0.4,0.5,0.6,0.9c0.2,0.4,0.4,0.7,0.5,1c0.1,0.2,0.3,0.6,0.5,1.2s0.4,1,0.5,1.3c0.1,0.3,0.3,0.8,0.5,1.5
				c0.2,0.7,0.4,1.2,0.6,1.6h-2.4c-0.1-0.2-0.2-0.6-0.4-1.1c-0.3-0.9-0.5-1.5-0.7-1.9c-0.1-0.4-0.3-0.9-0.6-1.6
				c-0.3-0.6-0.5-1.1-0.7-1.4s-0.4-0.6-0.7-1c-0.3-0.4-0.6-0.7-0.8-0.8c-0.3-0.2-0.6-0.3-1-0.4c-0.4-0.1-0.8-0.2-1.2-0.2H3.7
				c0.1,0.7,0.2,1.3,0.2,1.9v6.5H1.7V87.1h2.2v5.6c0,0.7-0.1,1.4-0.2,2h1.9c0.6,0,1.1-0.1,1.6-0.4c0.5-0.3,0.9-0.6,1.2-0.9
				c0.3-0.3,0.7-0.9,1-1.7c0.4-0.8,0.7-1.4,0.8-1.9c0.2-0.4,0.5-1.2,0.9-2.4c0.1-0.2,0.1-0.3,0.1-0.4h2.3c-1,2.8-1.7,4.7-2.1,5.5
				c-0.9,1.7-2,2.7-3.4,2.9C8,95.5,7.9,95.5,7.8,95.6z"/>
		</g>
		<g>
			<path d="M17,94.2l-0.2-1.6c2.3-0.4,4.4-0.6,6.1-0.6c1.5,0,2.5,0.3,3.2,0.9c0.7,0.6,1,1.6,1,3.1v8.8h-1.7l-0.3-2.1
				c-0.6,0.6-1.4,1.2-2.3,1.6c-0.9,0.5-1.9,0.7-2.9,0.7c-1.2,0-2.1-0.3-2.7-0.9c-0.7-0.6-1-1.5-1-2.6v-1.4c0-1,0.3-1.7,0.9-2.3
				c0.6-0.5,1.5-0.8,2.6-0.8H25v-1.1c0-0.8-0.2-1.3-0.6-1.7c-0.4-0.3-1-0.5-2-0.5C21.2,93.9,19.4,94,17,94.2z M18.5,100.6v0.8
				c0,0.7,0.2,1.1,0.5,1.4c0.3,0.3,0.8,0.5,1.5,0.5c0.7,0,1.4-0.1,2.2-0.5c0.8-0.3,1.6-0.8,2.3-1.4v-2.5h-4.8
				C19,98.9,18.5,99.5,18.5,100.6z"/>
		</g>
		<g>
			<path d="M30.7,94.2l-0.2-1.7c1.1-0.3,2.4-0.4,3.9-0.4c2.1,0,3.6,0.2,4.4,0.7c0.8,0.5,1.2,1.3,1.2,2.7c0,0.9-0.2,1.6-0.6,2.1
				c-0.4,0.5-1.1,0.7-2,0.8v0.1c1.1,0.1,1.9,0.4,2.4,0.9s0.7,1.3,0.7,2.4c0,1.3-0.4,2.2-1.2,2.6c-0.8,0.5-2.2,0.7-4.2,0.7
				c-1.9,0-3.6-0.1-5-0.4l0.2-1.7c1.5,0.1,3.1,0.2,4.7,0.2c1.3,0,2.1-0.1,2.6-0.4s0.7-0.8,0.7-1.5c0-0.8-0.2-1.3-0.7-1.6
				c-0.5-0.3-1.3-0.4-2.5-0.4h-3v-1.6h3c1.1,0,1.9-0.1,2.3-0.4c0.4-0.3,0.6-0.8,0.6-1.5c0-0.7-0.2-1.2-0.7-1.4
				c-0.5-0.2-1.4-0.3-2.7-0.3C32.9,94,31.7,94.1,30.7,94.2z"/>
		</g>
		<g>
			<path d="M44.1,94.2l-0.2-1.6c2.3-0.4,4.4-0.6,6.1-0.6c1.5,0,2.5,0.3,3.2,0.9c0.7,0.6,1,1.6,1,3.1v8.8h-1.7l-0.3-2.1
				c-0.6,0.6-1.4,1.2-2.3,1.6c-0.9,0.5-1.9,0.7-2.9,0.7c-1.2,0-2.1-0.3-2.7-0.9c-0.7-0.6-1-1.5-1-2.6v-1.4c0-1,0.3-1.7,0.9-2.3
				c0.6-0.5,1.5-0.8,2.6-0.8H52v-1.1c0-0.8-0.2-1.3-0.6-1.7c-0.4-0.3-1-0.5-2-0.5C48.3,93.9,46.5,94,44.1,94.2z M45.5,100.6v0.8
				c0,0.7,0.2,1.1,0.5,1.4c0.3,0.3,0.8,0.5,1.5,0.5c0.7,0,1.4-0.1,2.2-0.5s1.6-0.8,2.3-1.4v-2.5h-4.8
				C46.1,98.9,45.5,99.5,45.5,100.6z"/>
		</g>
		<g>
			<path d="M63.5,99.2H63l-3.6,5.7H57l4.2-6.5l-3.9-6.1h2.4l3.2,5.2h0.6l3.2-5.2h2.4l-3.9,6.1l4.2,6.5H67L63.5,99.2z"/>
		</g>
		<g>
			<path d="M81.1,103.1l0.2,1.5c-1.2,0.4-2.6,0.6-4.3,0.6c-2.2,0-3.7-0.5-4.6-1.5c-0.9-1-1.3-2.7-1.3-5.1c0-2.4,0.5-4.1,1.4-5.1
				c0.9-1,2.4-1.5,4.6-1.5c1.7,0,3,0.2,4,0.6L80.8,94c-1.1-0.1-2.3-0.2-3.4-0.2c-1.5,0-2.5,0.3-3.1,1c-0.6,0.7-0.9,1.9-0.9,3.7
				c0,1.8,0.3,3.1,0.9,3.7c0.6,0.7,1.6,1,3.1,1C78.8,103.4,80,103.3,81.1,103.1z"/>
		</g>
		<g>
			<path d="M94.8,94.1h-4.5v10.8h-2.2V94.1h-4.6v-1.8h11.3V94.1z"/>
		</g>
		<g>
			<path d="M97.8,94.2l-0.2-1.6c2.3-0.4,4.4-0.6,6.1-0.6c1.5,0,2.5,0.3,3.2,0.9c0.7,0.6,1,1.6,1,3.1v8.8h-1.7l-0.3-2.1
				c-0.6,0.6-1.4,1.2-2.3,1.6c-0.9,0.5-1.9,0.7-2.9,0.7c-1.2,0-2.1-0.3-2.7-0.9c-0.7-0.6-1-1.5-1-2.6v-1.4c0-1,0.3-1.7,0.9-2.3
				c0.6-0.5,1.5-0.8,2.6-0.8h5.2v-1.1c0-0.8-0.2-1.3-0.6-1.7c-0.4-0.3-1-0.5-2-0.5C102,93.9,100.2,94,97.8,94.2z M99.2,100.6v0.8
				c0,0.7,0.2,1.1,0.5,1.4c0.3,0.3,0.8,0.5,1.5,0.5c0.7,0,1.4-0.1,2.2-0.5c0.8-0.3,1.6-0.8,2.3-1.4v-2.5h-4.8
				C99.8,98.9,99.2,99.5,99.2,100.6z"/>
		</g>
		<g>
			<path d="M122.7,92.3v12.6h-2.2v-5.8h-6.6v5.8h-2.2V92.3h2.2v5.1h6.6v-5.1H122.7z"/>
		</g>
		<g>
			<path d="M136.1,103.1l0.2,1.5c-1.2,0.4-2.6,0.6-4.3,0.6c-2.2,0-3.7-0.5-4.6-1.5c-0.9-1-1.3-2.7-1.3-5.1c0-2.4,0.5-4.1,1.4-5.1
				c0.9-1,2.4-1.5,4.6-1.5c1.7,0,3,0.2,4,0.6l-0.3,1.4c-1.1-0.1-2.3-0.2-3.4-0.2c-1.5,0-2.5,0.3-3.1,1c-0.6,0.7-0.9,1.9-0.9,3.7
				c0,1.8,0.3,3.1,0.9,3.7s1.6,1,3.1,1C133.8,103.4,135,103.3,136.1,103.1z"/>
		</g>
		<g>
			<path d="M145,98.3L145,98.3c0.5,0.1,0.9,0.2,1.2,0.3c0.4,0.1,0.7,0.3,1,0.6c0.3,0.3,0.6,0.6,0.8,0.8c0.2,0.3,0.4,0.7,0.7,1.3
				c0.3,0.6,0.5,1.1,0.7,1.5c0.2,0.4,0.4,1.1,0.8,2h-2.3c-0.3-0.8-0.5-1.3-0.6-1.6c-0.1-0.3-0.3-0.7-0.5-1.3
				c-0.2-0.5-0.4-0.9-0.6-1.1c-0.1-0.2-0.3-0.4-0.6-0.7c-0.2-0.3-0.5-0.5-0.7-0.6c-0.2-0.1-0.5-0.2-0.8-0.3c-0.3-0.1-0.6-0.1-1-0.1
				h-0.1h-1.7c0.1,0.6,0.1,1,0.1,1.2v4.5h-2.2V92.3h2.2v3.7c0,0.4,0,0.9-0.1,1.4h1.8c0.6,0,1.1-0.1,1.5-0.3c0.4-0.2,0.8-0.6,1.2-1.1
				c0.4-0.5,0.6-1,0.9-1.5c0.2-0.5,0.5-1.2,0.9-2.2h2.3c-0.2,0.6-0.4,1-0.5,1.2c-0.1,0.2-0.2,0.6-0.4,1c-0.2,0.4-0.3,0.8-0.4,0.9
				c-0.1,0.2-0.2,0.4-0.4,0.8c-0.2,0.3-0.3,0.6-0.5,0.7c-0.1,0.1-0.3,0.3-0.5,0.5c-0.2,0.2-0.4,0.3-0.6,0.4
				c-0.2,0.1-0.4,0.2-0.7,0.3C145.6,98.2,145.3,98.3,145,98.3z"/>
		</g>
		<g>
			<path d="M153.1,94.2l-0.2-1.6c2.3-0.4,4.4-0.6,6.1-0.6c1.5,0,2.5,0.3,3.2,0.9c0.7,0.6,1,1.6,1,3.1v8.8h-1.7l-0.3-2.1
				c-0.6,0.6-1.4,1.2-2.3,1.6c-0.9,0.5-1.9,0.7-2.9,0.7c-1.2,0-2.1-0.3-2.7-0.9c-0.7-0.6-1-1.5-1-2.6v-1.4c0-1,0.3-1.7,0.9-2.3
				c0.6-0.5,1.5-0.8,2.6-0.8h5.2v-1.1c0-0.8-0.2-1.3-0.6-1.7c-0.4-0.3-1-0.5-2-0.5C157.3,93.9,155.5,94,153.1,94.2z M154.6,100.6
				v0.8c0,0.7,0.2,1.1,0.5,1.4c0.3,0.3,0.8,0.5,1.5,0.5c0.7,0,1.4-0.1,2.2-0.5c0.8-0.3,1.6-0.8,2.3-1.4v-2.5h-4.8
				C155.2,98.9,154.6,99.5,154.6,100.6z"/>
		</g>
		<g>
			<path d="M169.8,99.5v-0.1c-1-0.1-1.7-0.5-2.2-1.1c-0.4-0.6-0.7-1.4-0.7-2.4c0-1.2,0.3-2.2,1-2.8c0.7-0.6,1.9-0.9,3.6-0.9
				c2.5,0,4.3,0.1,5.5,0.2v12.5H175v-4.6h-3.4c-1.2,0-2,0.4-2.2,1.3l-1,3.4h-2.3l1.1-3.8C167.7,100.2,168.5,99.7,169.8,99.5z
				 M175,98.6V94c-0.3,0-0.8,0-1.5,0c-0.7,0-1.4,0-1.8,0c-1,0-1.7,0.2-2,0.5c-0.4,0.3-0.5,0.9-0.5,1.8c0,0.9,0.2,1.5,0.6,1.8
				c0.4,0.4,1.1,0.5,2.1,0.5H175z"/>
		</g>
		<g>
			<path d="M196.6,99.3h-7.3l-1.8,5.6h-2.3l5.7-17.2c0.1-0.4,0.4-0.6,0.9-0.6h2.4c0.5,0,0.7,0.2,0.9,0.6l5.7,17.2h-2.3L196.6,99.3z
				 M196,97.4l-2.2-7.1c-0.2-0.4-0.3-0.9-0.4-1.4h-0.7l-0.4,1.4l-2.2,7.1H196z"/>
		</g>
		<g>
			<path d="M212.5,103.1l0.2,1.5c-1.2,0.4-2.6,0.6-4.3,0.6c-2.2,0-3.7-0.5-4.6-1.5c-0.9-1-1.3-2.7-1.3-5.1c0-2.4,0.5-4.1,1.4-5.1
				c0.9-1,2.4-1.5,4.6-1.5c1.7,0,3,0.2,4,0.6l-0.3,1.4c-1.1-0.1-2.3-0.2-3.4-0.2c-1.5,0-2.5,0.3-3.1,1c-0.6,0.7-0.9,1.9-0.9,3.7
				c0,1.8,0.3,3.1,0.9,3.7c0.6,0.7,1.6,1,3.1,1C210.2,103.4,211.4,103.3,212.5,103.1z"/>
		</g>
		<g>
			<path d="M224.9,103.1l0.2,1.5c-1.2,0.4-2.6,0.6-4.3,0.6c-2.2,0-3.7-0.5-4.6-1.5c-0.9-1-1.3-2.7-1.3-5.1c0-2.4,0.5-4.1,1.4-5.1
				c0.9-1,2.4-1.5,4.6-1.5c1.7,0,3,0.2,4,0.6l-0.3,1.4c-1.1-0.1-2.3-0.2-3.4-0.2c-1.5,0-2.5,0.3-3.1,1c-0.6,0.7-0.9,1.9-0.9,3.7
				c0,1.8,0.3,3.1,0.9,3.7c0.6,0.7,1.6,1,3.1,1C222.6,103.4,223.9,103.3,224.9,103.1z"/>
		</g>
		<g>
			<path d="M233.3,92c2.1,0,3.7,0.5,4.6,1.5c0.9,1,1.3,2.7,1.3,5.1c0,2.4-0.4,4.1-1.3,5.1c-0.9,1-2.4,1.5-4.6,1.5
				c-2.2,0-3.7-0.5-4.6-1.5c-0.9-1-1.3-2.7-1.3-5.1c0-2.4,0.4-4.1,1.3-5.1C229.6,92.5,231.1,92,233.3,92z M233.3,93.9
				c-1.4,0-2.3,0.3-2.9,1c-0.5,0.7-0.8,1.9-0.8,3.7c0,1.8,0.3,3.1,0.8,3.7c0.5,0.7,1.5,1,2.9,1c1.4,0,2.3-0.3,2.8-1
				c0.5-0.7,0.8-1.9,0.8-3.7c0-1.8-0.3-3.1-0.8-3.7C235.6,94.2,234.7,93.9,233.3,93.9z"/>
		</g>
		<g>
			<path d="M254.8,108.6h-1.4l-0.2-3.7h-10.6V92.3h2.1v10.8h6.2V92.3h2.2v10.8h1.7V108.6z"/>
		</g>
		<g>
			<path d="M268.8,104.9h-2v-8.3c0-0.2,0-0.5,0-0.9c0-0.4,0-0.7,0-0.8h-0.1c-0.2,0.5-0.5,1-0.9,1.5l-6.4,8.5h-1.8V92.3h2v8.3
				c0,0.5,0,1.1-0.1,1.7h0.1c0.3-0.6,0.6-1,0.9-1.4l6.4-8.6h1.8V104.9z"/>
		</g>
		<g>
			<path d="M272.8,94.2l-0.2-1.6c2.3-0.4,4.4-0.6,6.1-0.6c1.5,0,2.5,0.3,3.2,0.9s1,1.6,1,3.1v8.8h-1.7l-0.3-2.1
				c-0.6,0.6-1.4,1.2-2.3,1.6c-0.9,0.5-1.9,0.7-2.9,0.7c-1.2,0-2.1-0.3-2.7-0.9c-0.7-0.6-1-1.5-1-2.6v-1.4c0-1,0.3-1.7,0.9-2.3
				c0.6-0.5,1.5-0.8,2.6-0.8h5.2v-1.1c0-0.8-0.2-1.3-0.6-1.7c-0.4-0.3-1-0.5-2-0.5C277,93.9,275.2,94,272.8,94.2z M274.3,100.6v0.8
				c0,0.7,0.2,1.1,0.5,1.4c0.3,0.3,0.8,0.5,1.5,0.5c0.7,0,1.4-0.1,2.2-0.5c0.8-0.3,1.6-0.8,2.3-1.4v-2.5H276
				C274.9,98.9,274.3,99.5,274.3,100.6z"/>
		</g>
		<g>
			<path d="M299.1,108.6h-1.4l-0.2-3.7h-10.6V92.3h2.1v10.8h6.2V92.3h2.2v10.8h1.7V108.6z"/>
		</g>
		<g>
			<path d="M313.1,104.9h-2v-8.3c0-0.2,0-0.5,0-0.9c0-0.4,0-0.7,0-0.8h-0.1c-0.2,0.5-0.5,1-0.9,1.5l-6.4,8.5h-1.8V92.3h2v8.3
				c0,0.5,0,1.1-0.1,1.7h0.1c0.3-0.6,0.6-1,0.9-1.4l6.4-8.6h1.8V104.9z"/>
		</g>
		<g>
			<path d="M319.7,99.5v-0.1c-1-0.1-1.7-0.5-2.2-1.1c-0.4-0.6-0.7-1.4-0.7-2.4c0-1.2,0.3-2.2,1-2.8c0.7-0.6,1.9-0.9,3.6-0.9
				c2.5,0,4.3,0.1,5.5,0.2v12.5h-2.1v-4.6h-3.4c-1.2,0-2,0.4-2.2,1.3l-1,3.4h-2.3l1.1-3.8C317.5,100.2,318.3,99.7,319.7,99.5z
				 M324.9,98.6V94c-0.3,0-0.8,0-1.5,0c-0.7,0-1.4,0-1.8,0c-1,0-1.7,0.2-2.1,0.5c-0.4,0.3-0.5,0.9-0.5,1.8c0,0.9,0.2,1.5,0.6,1.8
				c0.4,0.4,1.1,0.5,2.1,0.5H324.9z"/>
		</g>
		<g>
			<path d="M346.6,85.7v2.5c3,0.1,5.1,0.7,6.3,1.9c1.2,1.1,1.8,3.1,1.8,5.8c0,2.7-0.6,4.6-1.8,5.7c-1.2,1.1-3.3,1.7-6.3,1.8v2.5
				h-2.3v-2.5c-3-0.1-5.1-0.7-6.3-1.8c-1.2-1.1-1.8-3-1.8-5.7c0-2.7,0.6-4.7,1.8-5.8c1.2-1.1,3.3-1.8,6.3-1.9v-2.5H346.6z
				 M344.4,101.4V90.1c-2.3,0.1-3.8,0.5-4.6,1.4c-0.8,0.8-1.3,2.3-1.3,4.4c0,2.1,0.4,3.5,1.3,4.3
				C340.6,100.9,342.1,101.4,344.4,101.4z M346.5,90.1v11.4c2.3-0.1,3.8-0.5,4.6-1.3c0.8-0.8,1.3-2.2,1.3-4.3c0-2.1-0.4-3.6-1.3-4.4
				C350.3,90.6,348.7,90.2,346.5,90.1z"/>
		</g>
		<g>
			<path d="M368.9,104.9h-2v-8.3c0-0.2,0-0.5,0-0.9c0-0.4,0-0.7,0-0.8h-0.1c-0.2,0.5-0.5,1-0.9,1.5l-6.4,8.5h-1.8V92.3h2v8.3
				c0,0.5,0,1.1-0.1,1.7h0.1c0.3-0.6,0.6-1,0.9-1.4l6.4-8.6h1.8V104.9z"/>
		</g>
		<g>
			<path d="M383.7,92.3v12.6h-2.2v-5.8H375v5.8h-2.2V92.3h2.2v5.1h6.6v-5.1H383.7z"/>
		</g>
		<g>
			<path d="M397.7,89.1H392v15.8h-2.3V89.1H384v-2h13.7V89.1z"/>
		</g>
		<g>
			<path d="M405.6,99.7h-5.9c0.1,1.4,0.5,2.4,1.1,2.9c0.6,0.5,1.5,0.7,2.9,0.7c1.4,0,2.9-0.1,4.4-0.3l0.2,1.5
				c-1.1,0.5-2.7,0.7-4.9,0.7c-2.2,0-3.7-0.5-4.6-1.5s-1.4-2.7-1.4-5.1c0-2.4,0.4-4.1,1.3-5.1c0.9-1,2.4-1.5,4.4-1.5
				c1.9,0,3.2,0.3,4.1,1c0.9,0.7,1.3,1.7,1.3,3.1C408.6,98.5,407.6,99.7,405.6,99.7z M399.7,98h5.3c0.9,0,1.4-0.6,1.3-1.9
				c0-0.8-0.2-1.4-0.7-1.7c-0.5-0.3-1.3-0.5-2.4-0.5c-1.3,0-2.2,0.3-2.8,0.9C400,95.3,399.8,96.4,399.7,98z"/>
		</g>
		<g>
			<path d="M417.4,99.2h-0.5l-3.6,5.7h-2.4l4.2-6.5l-3.9-6.1h2.4l3.2,5.2h0.6l3.2-5.2h2.4l-3.9,6.1l4.2,6.5h-2.4L417.4,99.2z"/>
		</g>
	</g>
	<g>
		<rect x="2" y="74" width="419" height="2"/>
	</g>
</g>
</svg>
