<?xml version="1.0" encoding="utf-8"?>
<!-- Generator: Adobe Illustrator 17.1.0, SVG Export Plug-In . SVG Version: 6.00 Build 0)  -->
<!DOCTYPE svg PUBLIC "-//W3C//DTD SVG 1.1//EN" "http://www.w3.org/Graphics/SVG/1.1/DTD/svg11.dtd">
<svg version="1.1" id="Layer_1" xmlns="http://www.w3.org/2000/svg" xmlns:xlink="http://www.w3.org/1999/xlink" x="0px" y="0px"
	 viewBox="0 0 227 31" enable-background="new 0 0 227 31" xml:space="preserve">
<g>
	<path fill="#353534" d="M4,21h2.5C8.1,17,9,13.3,9,5.8V3h16v18h2.5l-0.6,9H23v-5H9.1l-0.3,5H4V21z M14,7v2.8
		c0,4.6-1.1,7.2-2.4,11.2H20V7H14z"/>
	<path fill="#353534" d="M28.4,16.8c0-4.8,3.9-8.8,9.1-8.8c5.2,0,9.1,3.9,9.1,8.8c0,4.8-3.9,8.8-9.1,8.8
		C32.3,25.5,28.4,21.7,28.4,16.8z M41.9,16.8c0-2.5-1.8-4.6-4.4-4.6c-2.7,0-4.4,2.1-4.4,4.6c0,2.5,1.8,4.6,4.4,4.6
		C40.3,21.4,41.9,19.3,41.9,16.8z"/>
	<path fill="#009247" d="M49,3h19v22h-5V7h-9v18h-5V3z"/>
	<path fill="#009247" d="M107,8v17h-5V12h-4.4c0,11-1.9,13.1-6.1,13.1c-0.6,0-1.8,0-2.4-0.2l0.3-3.8c0.2,0,0.8,0,1,0
		c1.8,0,2.7-1.1,2.7-13.1H107z"/>
	<path fill="#009247" d="M109.5,29.1l1.6-3.5c0.6,0.4,1.4,0.7,2,0.7c0.8,0,1.3-0.4,1.7-1.3L108.2,8h5.1l3.8,11.5L120.8,8h5
		l-6.5,17.4c-1.3,3.4-2.7,4.8-5.5,4.8C112,30.2,110.7,29.8,109.5,29.1z"/>
	<path fill="#009247" d="M132,13.6c0,1.8,1,2.8,2.5,2.8c1.3,0,2.5-0.3,3.5-0.8V8h4v17h-4v-5.7c-2,0.6-3.1,1.1-4.8,1.1
		c-3.4,0-6.2-1.9-6.2-5.4V8h5V13.6z"/>
	<path fill="#009247" d="M146,8h5v7.2l5.7-7.2h5.5l-6.2,7l7,10h-5.6l-4.3-6.3l-2,2.4V25h-5V8z"/>
	<path fill="#009247" d="M180,25h-5v-9.6l-6.2,9.6H164V8h5v10.2L175.5,8h4.5V25z"/>
	<path fill="#353534" d="M192,8h5v7.2l5.9-7.2h5.5l-6.2,7l7,10h-5.6l-4.4-6.3l-2.1,2.4V25h-5V8z"/>
	<path fill="#353534" d="M209.7,10.8c1.7-1.6,4.2-2.6,7.1-2.6c3.6,0,6.4,1.9,6.4,4.6c0,2-1.1,3.1-2.6,3.8c1.8,0.6,3,1.8,3,3.9
		c0,2.9-2.8,5.1-6.8,5.1c-3.2,0-5.7-1-7.7-2.7l2.2-3c1.4,1.2,3.2,1.9,5.1,1.9c1.4,0,2.5-0.9,2.5-1.9c0-0.9-1-1.8-2.8-1.8H214v-3h2
		c1.5,0,2.4-0.7,2.4-1.6c0-0.9-0.9-1.5-2.2-1.5c-1.8,0-3.4,0.7-4.6,1.8L209.7,10.8z"/>
	<circle fill="#353534" cx="185.8" cy="25.2" r="2.9"/>
	<path fill="#009247" d="M84.6,9.4c0-0.1,0.1-0.2,0.1-0.4c0-0.7-0.5-1-1.2-1h-1.6l-0.5-0.7l0.8-0.9c1.1,0.4,2.3,0.2,3.2-0.7
		c1.2-1.2,1.2-3,0-4.2c-1.2-1.2-3-1.2-4.2,0c-0.9,0.9-1.1,2.1-0.7,3.2l-0.8,0.8l-0.8-0.8c0.4-1.1,0.2-2.3-0.7-3.2
		c-1.2-1.2-3-1.2-4.2,0c-1.2,1.2-1.2,3,0,4.2c0.9,0.9,2.1,1.1,3.2,0.7L78,7.3L77.5,8h-1.7c-0.7,0-1.2,0.4-1.2,1.1
		c0,0.1,0,0.2,0.1,0.4c-2.5,1.6-4.1,4.3-4.1,7.4c0,4.9,3.9,8.7,9.1,8.7c5.2,0,9.1-3.9,9.1-8.8C88.7,13.6,87.1,10.9,84.6,9.4z
		 M83,20.6v1.2c0,0.3-0.4,0.3-0.6,0.3h-5.1C77,22,77,22,77,21.7v-1.2c-1-1-3-4.4-1-4.9v-4.3c0-0.6,0.5-1,1-1c0.5,0,1,0.3,1,1V13
		c0,0,0.4-0.2,0.8-0.2c0.4,0,0.9,0.2,1.3,0.8c0,0,0.3-0.2,0.7-0.2c0.4,0,0.9,0.2,1.2,0.8c0,0,0.1,0,0.1,0c0.4,0,1.5,0.1,1.8,1.6
		C84.2,17.1,84,18.7,83,20.6z"/>
</g>
</svg>
