<?xml version="1.0" encoding="utf-8"?>
<!-- Generator: Adobe Illustrator 17.1.0, SVG Export Plug-In . SVG Version: 6.00 Build 0)  -->
<!DOCTYPE svg PUBLIC "-//W3C//DTD SVG 1.1//EN" "http://www.w3.org/Graphics/SVG/1.1/DTD/svg11.dtd">
<svg version="1.1" id="Layer_1" xmlns="http://www.w3.org/2000/svg" xmlns:xlink="http://www.w3.org/1999/xlink" x="0px" y="0px"
	 viewBox="0 0 400 400" enable-background="new 0 0 400 400" xml:space="preserve">
<g fill="#ccc">
	<path d="M185.9,275.9c-1.8,0-2.5-1.1-2.5-2.8v-7.6h6.1v-3.4h-6.1v-5.2h-3.7v5.2h-3.4v3.4h3.4v7.8c0,3.9,1.6,6.3,5.9,6.3
		c1.6,0,3.4-0.5,4.6-1.3l-1.1-3.2C188,275.8,186.8,275.9,185.9,275.9z"/>
	<path d="M127.3,261.7c-2.2,0-4.4,0.7-6.1,3c-1.3-2-3-3-5.7-3c-1.8,0-3.5,0.5-5,2.5V262h-3.7v17.1h3.7v-9.4c0-3,1.6-4.4,4.1-4.4
		s3.7,1.6,3.7,4.4v9.4h3.7v-9.4c0-3,1.8-4.4,4.1-4.4c2.5,0,3.7,1.6,3.7,4.4v9.4h4.1v-10.7C134,264.3,131.6,261.7,127.3,261.7z"/>
	<path d="M167.7,268.8l-1.8-0.2c-1.6-0.2-2.8-0.5-2.8-1.6c0-1.3,1.3-2,3.2-2c2.2,0,4.3,0.9,5.4,1.5l1.6-3c-1.8-1.3-4.3-1.8-6.9-1.8
		c-4.3,0-7.1,2.2-7.1,5.5c0,2.8,2.2,4.4,5.9,5l1.8,0.2c2,0.4,3,0.9,3,1.8c0,1.3-1.5,2.2-3.9,2.2s-4.4-0.9-5.7-1.8l-1.8,2.8
		c2,1.5,4.6,2.2,7.3,2.2c5,0,7.8-2.3,7.8-5.5C173.5,271,171.3,269.3,167.7,268.8z"/>
	<path d="M151.3,264.2c-1.3-1.6-3-2.5-5.4-2.5c-4.8,0-8.5,3.7-8.5,8.9c0,5.2,3.7,8.9,8.5,8.9c2.5,0,4.3-0.9,5.4-2.5v2.2h3.7v-8.6
		v-8.5h-3.7V264.2z M146.3,276.1c-3.2-0.2-5.2-2.5-5.2-5.5c0-3,2-5.5,5.2-5.5c3,0,5.2,2.3,5.2,5.5
		C151.5,273.6,149.4,276.1,146.3,276.1z"/>
	<path d="M268.2,264.2V262h-3.7v17.1h3.7v-9.6c0-2.8,1.3-4.4,3.5-4.4c0.7,0,1.6,0.2,2.3,0.4l1.1-3.5c-0.7-0.2-1.8-0.2-2.5-0.2
		C270.4,261.7,269.1,262.7,268.2,264.2z"/>
	<path d="M255.7,264.2c-1.3-1.6-3-2.5-5.4-2.5c-4.8,0-8.5,3.7-8.5,8.9c0,5.2,3.7,8.9,8.5,8.9c2.5,0,4.3-0.9,5.4-2.5v2.2h3.7v-8.6
		v-8.5h-3.7V264.2z M250.9,276.1c-3.2-0.2-5.2-2.5-5.2-5.5c0-3,2-5.5,5.2-5.5c3,0,5.2,2.3,5.2,5.5
		C256.1,273.6,253.9,276.1,250.9,276.1z"/>
	<path d="M290,264.2c-1.3-1.6-3-2.5-5.4-2.5c-4.8,0-8.5,3.7-8.5,8.9c0,5.2,3.7,8.9,8.5,8.9c2.5,0,4.3-0.9,5.4-2.5v2.2h3.7v-8.6
		v-15.3H290V264.2z M285.2,276.1c-3.2-0.2-5.2-2.5-5.2-5.5c0-3,2-5.5,5.2-5.5c3,0,5.2,2.3,5.2,5.5
		C290.4,273.6,288.2,276.1,285.2,276.1z"/>
	<path d="M216.7,264.2V262h-3.7v17.1h3.7v-9.6c0-2.8,1.3-4.4,3.5-4.4c0.7,0,1.6,0.2,2.3,0.4l1.1-3.5c-0.7-0.2-1.8-0.2-2.5-0.2
		C219,261.7,217.6,262.7,216.7,264.2z"/>
	<path d="M201,261.7c-5,0-8.5,3.5-8.5,8.9c0,5.4,3.5,8.9,8.7,8.9c2.5,0,5-0.7,6.9-2.3l-1.8-2.6c-1.5,1.1-3.2,1.8-5,1.8
		c-2.3,0-4.6-1.1-5.2-4.1h12.6v-1.5C209,265.2,205.8,261.7,201,261.7z M196.4,269c0.4-2.3,2-4.1,4.6-4.1c2.3,0,3.9,1.5,4.3,4.1
		H196.4z"/>
	<path d="M233.7,265.1c1.6,0,3,0.5,4.4,1.6l1.8-3c-1.8-1.5-3.5-2-6.1-2c-5.5,0-9.1,3.7-9.1,8.9c0,5.2,3.5,8.9,9.1,8.9
		c2.5,0,4.3-0.5,6.1-2l-1.8-3c-1.5,1.1-2.8,1.6-4.4,1.6c-3,0-5.2-2.2-5.2-5.5C228.7,267.3,230.7,265.2,233.7,265.1z"/>
	<path d="M177.5,182.6c0,18.5,8.4,36.2,22.5,47.9c14.3-11.8,22.5-29.2,22.5-47.9c0-18.6-8.2-36-22.5-47.9
		C185.7,146.6,177.5,164,177.5,182.6z"/>
	<path d="M160.4,244.7c13.2,0,25.6-4.1,36.2-11.7c0,0,0.1,0,0.1-0.1c-14.5-12.4-23.2-31-23.2-50.3c0-19.4,8.4-37.7,23.2-50.3
		l-0.1-0.1c-10.6-7.6-23.1-11.7-36.2-11.7c-34.2,0-62.1,27.9-62.1,62.1S126.1,244.7,160.4,244.7z"/>
	<path d="M226.5,182.6c0,19.6-8.4,37.8-23.2,50.3c0,0,0.1,0,0.1,0.1c10.6,7.6,23.1,11.7,36.2,11.7c34.2,0,62.1-27.9,62.1-62.1
		s-27.9-62.1-62.1-62.1c-13.2,0-25.6,4.1-36.2,11.7l-0.1,0.1C218.1,144.9,226.5,163.2,226.5,182.6z"/>
</g>
</svg>
