<?xml version="1.0" encoding="utf-8"?>
<!-- Generator: Adobe Illustrator 17.1.0, SVG Export Plug-In . SVG Version: 6.00 Build 0)  -->
<!DOCTYPE svg PUBLIC "-//W3C//DTD SVG 1.1//EN" "http://www.w3.org/Graphics/SVG/1.1/DTD/svg11.dtd">
<svg version="1.1" id="Layer_1" xmlns="http://www.w3.org/2000/svg" xmlns:xlink="http://www.w3.org/1999/xlink" x="0px" y="0px"
	 viewBox="0 0 600 600" enable-background="new 0 0 600 600" xml:space="preserve">
<path fill="#99CC99" d="M303.9,26.6C152.5,24,27.6,144.7,25,296.1c-1.5,85.9,36.8,163,97.7,214.3c0.7-0.6,1.4-1.2,2.1-1.8
	c1.3-1.1,2.7-2.1,4.1-3.1c2.2-1.6,4.4-3,6.8-4.3l81.9-44.6c2-1.1,3.9-2.4,5.6-3.8c7.4-6.3,11.8-15.5,11.8-25.5v-33.5
	c0,0-19.4-23.3-30-57c0-0.1,0-0.1-0.1-0.2c-0.3-0.9-0.5-1.7-0.8-2.6c-0.1-0.4-0.2-0.7-0.3-1.1c-0.2-0.6-0.3-1.3-0.5-1.9
	c-0.2-0.6-0.3-1.3-0.5-1.9c-0.1-0.4-0.2-0.8-0.3-1.2c-0.2-0.7-0.4-1.4-0.5-2.1c-8.3-4.7-13.9-13.5-13.9-23.7l-5.8-36.7
	c0-8.1,9.4-15.3,15-20.4v-53.1c0,0-10.3-77.6,91.1-82.3c3.5-0.2,7-0.3,10.8-0.3c50.5,0,76,16.9,88.7,35.4
	c15.4,22.4,12.2,47.2,12.2,47.2v53.1c5.6,5,13.9,12.3,13.9,20.4l-4.7,36.7c0,8.5-3.9,16-10,21c0,0-0.1,0-0.1,0.1
	c-0.5,0.4-1,0.8-1.5,1.1c-0.1,0.1-0.2,0.2-0.3,0.2c-0.4,0.3-0.9,0.6-1.3,0.9c-0.1,0.1-0.3,0.2-0.4,0.3c-0.1,0-0.1,0.1-0.2,0.1
	c-9.3,39.6-33,68-33,68v33.6c0,12.2,6.7,23.4,17.4,29.3l81.8,44.6c4.8,2.6,9.1,5.9,13.1,9.4c-0.2,0.2-0.4,0.3-0.5,0.5
	c0.2,0.1,0.3,0.3,0.5,0.4c59.1-49.3,97.3-122.9,98.7-205.9C576,154,455.3,29.2,303.9,26.6z"/>
<path fill="#333333" d="M474.7,510.5c-4-3.5-8.3-6.7-13.1-9.4l-81.8-44.6c-10.7-5.9-17.4-17.1-17.4-29.3v-33.6c0,0,23.7-28.4,33-68
	c8.3-4.7,13.9-13.5,13.9-23.7l4.7-36.7c0-8.1-8.2-15.3-13.9-20.4v-53.1c0,0,10.9-82.5-100.9-82.5c-0.2,0-0.3,0-0.5,0
	c-0.2,0-0.3,0-0.5,0c-111.8,0-100.9,82.5-100.9,82.5v53.1c-5.6,5-15,12.3-15,20.4l5.8,36.7c0,10.1,5.6,18.9,13.9,23.7
	c9.3,39.6,33,68,33,68v33.6c0,12.2-6.7,23.4-17.4,29.3l-81.8,44.6c-4.8,2.6-9.1,5.9-13.1,9.4c0.2,0.2,0.4,0.3,0.5,0.5
	c-0.2,0.2-0.4,0.3-0.5,0.5c47.5,39.7,108.7,63.6,175.5,63.6c0.2,0,0.3,0,0.5,0c0.2,0,0.3,0,0.5,0c66.8,0,128-23.9,175.5-63.6
	c-0.2-0.2-0.4-0.3-0.5-0.5C474.4,510.8,474.5,510.6,474.7,510.5z"/>
</svg>
