<?xml version="1.0" encoding="utf-8"?>
<!-- Generator: Adobe Illustrator 17.1.0, SVG Export Plug-In . SVG Version: 6.00 Build 0)  -->
<!DOCTYPE svg PUBLIC "-//W3C//DTD SVG 1.1//EN" "http://www.w3.org/Graphics/SVG/1.1/DTD/svg11.dtd">
<svg version="1.1" id="Layer_1" xmlns="http://www.w3.org/2000/svg" xmlns:xlink="http://www.w3.org/1999/xlink" x="0px" y="0px"
	 viewBox="0 0 400 400" enable-background="new 0 0 400 400" xml:space="preserve">
<g fill="#ccc">
	<path d="M32.4,185.4c1.9-1.7,2.8-5,2.8-9.8c0-4.8-1-8.1-2.9-9.8c-2-1.7-5.5-2.6-10.8-2.6c-6.2,0-11.3,0.2-14.3,0.5V202h8v-14.4
		c2,0.3,4.8,0.4,7.3,0.4C27.1,188.1,30.5,187.2,32.4,185.4z M15,182v-12.3l6-0.1c2.2,0,3.7,0.4,4.5,1.2s1.2,2.4,1.2,4.7
		c0,2.4-0.4,4.1-1.2,4.9c-0.8,0.8-2.3,1.5-4.4,1.5H15z"/>
	<path d="M49,186.8l5.8,0.1c1.1,0,2,0.2,2.6,0.7c0.6,0.5,1.1,1.4,1.4,2.7l2.9,11.8h8.9l-3.3-12c-0.7-3.2-2.3-5.2-5.3-5.9v-0.3
		c2-0.3,4.4-1.3,5.5-2.9c1.1-1.6,1.7-3.8,1.7-6.6c0-4.3-1.1-7.2-3.2-8.8c-2.1-1.6-5.6-2.4-10.7-2.4c-6.2,0-11.3,0.2-14.3,0.5V202h8
		V186.8z M49,169.7l6-0.1c2.2,0,3.7,0.4,4.5,1.1c0.8,0.7,1.2,2.1,1.2,4.2c0,2.1-0.4,3.8-1.2,4.6c-0.8,0.8-2.3,1.4-4.5,1.4h-6V169.7z
		"/>
	<path d="M90.9,202.4c6.1,0,10.3-1.4,12.7-4.2c2.4-2.8,3.6-8,3.6-15.5s-1.2-12.7-3.6-15.5c-2.4-2.8-6.6-4.2-12.7-4.2
		c-6.1,0-10.3,1.4-12.7,4.2c-2.4,2.8-3.5,8-3.5,15.5s1.2,12.7,3.5,15.5C80.6,201,84.8,202.4,90.9,202.4z M85,172.5
		c1-1.8,3-2.7,5.9-2.7c2.9,0,4.8,0.9,5.9,2.7c1,1.8,1.6,5.2,1.6,10.2c0,5-0.5,8.4-1.6,10.2c-1,1.8-3,2.7-5.9,2.7
		c-2.9,0-4.8-0.9-5.9-2.7c-1-1.8-1.6-5.2-1.6-10.2C83.5,177.7,84,174.3,85,172.5z"/>
	<path d="M128.3,202.4c4.8,0,8.9-0.5,12.2-1.5l-0.7-6.2c-2.5,0.3-6.4,0.5-11.5,0.5c-2.8,0-4.6-0.9-5.6-2.6c-1-1.7-1.5-5-1.5-9.8
		s0.5-8,1.5-9.8c1-1.7,2.9-2.6,5.6-2.6c4.1,0,7.7,0.1,10.7,0.3l0.7-6.3c-3.3-0.8-7.1-1.3-11.4-1.3c-5.9,0-10,1.5-12.4,4.4
		c-2.4,2.9-3.6,8-3.6,15.3s1.2,12.3,3.6,15.2C118.3,200.9,122.4,202.4,128.3,202.4z"/>
	<path d="M171.5,201.2l-0.4-6.2h-14.6c-0.9,0-1.6-0.1-2-0.6c-0.4-0.4-0.6-1.1-0.6-2.1V185h15v-6h-15v-5.9c0-1,0.2-1.4,0.6-1.8
		c0.4-0.4,1-0.3,2-0.3h14.6l0.4-6.6c-3.5-0.4-9.3-0.7-17.6-0.7c-2.5,0-4.8,0.6-6.3,2c-1.5,1.4-2.6,3.2-2.6,5.5v23
		c0,2.3,1.1,4.2,2.6,5.6c1.5,1.4,3.7,2,6.2,2C162.1,201.8,168.1,201.6,171.5,201.2z"/>
	<path d="M195.6,180.3l-7.2-2.5c-1.5-0.5-2.6-1-3.1-1.6c-0.5-0.6-0.8-1.5-0.8-2.7c0-1.5,0.4-2.5,1.1-2.9c0.7-0.4,2.2-0.6,4.4-0.6
		c4.7,0,8.7,0.1,11.9,0.2l0.5-5.7c-3.5-1-7.7-1.5-12.5-1.5c-5.1,0-8.7,0.7-10.8,2.1c-2,1.4-3.1,4.2-3.1,8.4c0,2.9,0.6,5.2,1.8,6.9
		c1.2,1.8,3.2,3.2,6.1,4.2l7.7,2.7c1.4,0.4,2.3,0.9,2.8,1.5c0.5,0.5,0.8,1.4,0.8,2.7c0,1.5-0.4,2.5-1.1,3c-0.8,0.5-2.2,0.7-4.5,0.7
		c-0.5,0-4.7-0.1-12.6-0.3l-0.5,6.1c4.4,1,8.8,1.4,13,1.4c5.3,0,9-0.8,11-2.3c2.1-1.5,3.1-4.4,3.1-8.7c0-2.9-0.6-5.2-1.8-7
		C200.6,182.7,198.6,181.3,195.6,180.3z"/>
	<path d="M216,184.6l7.7,2.7c1.4,0.4,2.3,0.9,2.8,1.5c0.5,0.5,0.8,1.4,0.8,2.7c0,1.5-0.4,2.5-1.1,3c-0.8,0.5-2.2,0.7-4.5,0.7
		c-0.5,0-4.7-0.1-12.6-0.3l-0.5,6.1c4.4,1,8.8,1.4,13,1.4c5.3,0,9-0.8,11-2.3c2.1-1.5,3.1-4.4,3.1-8.7c0-2.9-0.6-5.2-1.8-7
		c-1.2-1.8-3.3-3.2-6.2-4.2l-7.2-2.5c-1.5-0.5-2.6-1-3.1-1.6c-0.6-0.6-0.8-1.5-0.8-2.7c0-1.5,0.4-2.5,1.1-2.9
		c0.7-0.4,2.2-0.6,4.4-0.6c4.7,0,8.7,0.1,11.9,0.2l0.5-5.7c-3.5-1-7.7-1.5-12.5-1.5c-5.1,0-8.7,0.7-10.8,2.1c-2,1.4-3.1,4.2-3.1,8.4
		c0,2.9,0.6,5.2,1.8,6.9C211.2,182.2,213.2,183.6,216,184.6z"/>
	<rect x="242" y="164" width="8" height="38"/>
	<path d="M282,185.6c0,1.4,0,3.4,0.2,6.4h-0.6c-0.9-2-1.8-4.3-2.8-6.1l-9.6-19.7c-0.4-0.9-0.9-1.4-1.4-1.8c-0.5-0.4-1.1-0.4-2-0.4
		h-5.1c-2,0-2.8,0.7-2.8,2.7V202h8v-22.9c0-2.2-0.4-4.1-0.7-6.1h0.6c0.3,2,1.1,3.3,2.3,5.9l10,20.3c0.4,0.9,0.9,1.7,1.4,2.1
		c0.5,0.4,1.1,0.7,2,0.7h5.2c2,0,3.2-1.3,3.2-3.3V164h-8V185.6z"/>
	<path d="M308.3,202.4c4.4,0,8-1.4,11-4.4l0.8,3.9h5.9v-22h-8v13.3c-2,1.3-4.6,1.9-6.8,1.9c-2.4,0-4-0.9-4.9-2.6
		c-0.9-1.8-1.3-5-1.3-9.7c0-2.8,0.1-5,0.4-6.6c0.3-1.6,0.8-2.9,1.5-3.8c0.7-0.9,1.6-1.5,2.6-1.8s2.3-0.4,4-0.4c3,0,6.6,0.1,10.7,0.3
		l0.7-6.2c-3.2-0.9-7.1-1.3-11.7-1.3c-6.3,0-10.7,1.4-13.2,4.2c-2.5,2.8-3.8,7.9-3.8,15.4c0,7,1,12,2.9,15.1
		C301,200.9,304.1,202.4,308.3,202.4z"/>
	<path d="M336.2,202c0.7,0,1.1-0.3,1.4-0.5c0.3-0.3,0.4-0.9,0.4-1.5v-3c0-0.7-0.2-1.2-0.4-1.5c-0.3-0.3-0.7-0.5-1.4-0.5h-1.5
		c-0.6,0-1,0.2-1.3,0.5c-0.3,0.3-0.4,0.8-0.4,1.5v3c0,0.7,0.1,1.3,0.4,1.5c0.3,0.3,0.7,0.5,1.3,0.5H336.2z"/>
	<path d="M358,186.7v-0.1c0-0.4,1.1-1,1.7-1.8l8.2-9.8h-5.5l-8.5,10h-3.5c0.2-1,0.5-2.9,0.5-4.7V163h-5v39h5v-9.4
		c0-1.2-0.4-2.6-0.6-4.6h3.6l9.3,14h5.4l-9.1-13C359.2,188.1,358,187.2,358,186.7z"/>
	<polygon points="395,198 377.7,198 395,178.7 395,175 373,175 373,179 389.7,179 372,197.9 372,202 395,202 	"/>
	<path d="M9.7,218.4c-3.8,0-6.1,3.1-6.1,7s2.4,6.6,6.4,6.6c2.1,0,3.5-0.5,4.3-0.8l-0.4-1.7c-0.9,0.4-1.9,0.9-3.6,0.9
		C8,230.3,6,229,5.9,226H15c0,0,0.1-0.8,0.1-1.3C15.1,222.3,14,218.4,9.7,218.4z M5.9,224c0.2-2,1.2-3.8,3.6-3.8
		c2.6,0,3.3,2.8,3.3,3.8H5.9z"/>
	<rect x="17" y="224" width="7" height="1"/>
	<path d="M33.5,220.3c1.3,0,2.2,0.3,2.7,0.6l0.5-1.8c-0.6-0.3-1.9-0.7-3.3-0.7c-4.2,0-7,2.9-7,6.9c0,4,2.5,6.6,6.4,6.6
		c1.7,0,3.1-0.5,3.7-0.8l-0.4-1.8c-0.7,0.3-1.6,0.6-2.9,0.6c-2.6,0-4.5-1.8-4.5-4.8C28.9,222.5,30.5,220.3,33.5,220.3z"/>
	<path d="M44.7,218.4c-3.6,0-6.4,2.5-6.4,6.9c0,4.1,2.7,6.7,6.2,6.7c3.1,0,6.4-2.1,6.4-6.9C51,221.1,48.5,218.4,44.7,218.4z
		 M44.6,230.1c-2.3,0-3.9-2.1-3.9-5c0-2.5,1.2-5,4-5s3.9,2.8,3.9,5C48.6,228,46.9,230.1,44.6,230.1z"/>
	<path d="M68,218.4c-1.2,0-2,0.3-2.8,0.9c-0.5,0.4-0.9,0.7-1.3,1.7h-0.1c-0.6-1-1.9-2.5-3.7-2.5c-2.1,0-3.3,1.5-4.1,2.5H56l-0.1-2
		h-2.1c0.1,1,0.2,1.8,0.2,3.2v9.8h2v-8.2c0-0.4,0.2-0.8,0.3-1.1c0.4-1.2,1.5-2.4,3-2.4c1.8,0,2.7,1.5,2.7,3.6v8.1h2v-8.4
		c0-0.4,0.3-0.9,0.4-1.2c0.4-1.1,1.5-2.1,2.8-2.1c1.9,0,2.8,1.5,2.8,4v7.7h2v-8C72,219.5,69.7,218.4,68,218.4z"/>
	<path d="M90.6,218.4c-1.2,0-2.2,0.3-2.9,0.9c-0.5,0.4-1.1,0.7-1.5,1.7h-0.1c-0.6-1-1.9-2.5-3.7-2.5c-2.1,0-3.3,1.5-4.1,2.5h-0.1
		l-0.1-2h-2.1c0.1,1-0.1,1.8-0.1,3.2v9.8h2v-8.2c0-0.4,0.3-0.8,0.5-1.1c0.4-1.2,1.4-2.4,2.9-2.4c1.8,0,2.7,1.5,2.7,3.6v8.1h3v-8.4
		c0-0.4-0.1-0.9,0-1.2c0.4-1.1,1.1-2.1,2.5-2.1c1.9,0,2.5,1.5,2.5,4v7.7h3v-8C95,219.5,92.3,218.4,90.6,218.4z"/>
	<path d="M103.7,218.4c-3.8,0-6.1,3.1-6.1,7s2.4,6.6,6.4,6.6c2.1,0,3.5-0.5,4.3-0.8l-0.4-1.7c-0.9,0.4-1.9,0.9-3.6,0.9
		c-2.4,0-4.4-1.3-4.4-4.3h9.1c0,0,0.1-0.8,0.1-1.3C109,222.3,107.9,218.4,103.7,218.4z M99.9,224c0.2-2,1.2-3.8,3.6-3.8
		c2.6,0,3.3,2.8,3.3,3.8H99.9z"/>
	<path d="M114.1,221H114l-0.1-2h-2.1c0.1,1,0.2,2.2,0.2,3.7v9.3h2v-7.3c0-0.4,0.2-0.8,0.2-1.1c0.3-1.8,1.4-3,3.1-3
		c0.3,0,0.7,0,0.7,0.1v-2.2c0-0.1-0.2-0.2-0.5-0.2C115.9,218.3,114.7,220,114.1,221z"/>
	<path d="M126.4,220.3c1.3,0,2.2,0.3,2.7,0.6l0.5-1.8c-0.6-0.3-1.9-0.7-3.3-0.7c-4.2,0-7,2.9-7,6.9c0,4,2.5,6.6,6.4,6.6
		c1.7,0,3.1-0.5,3.7-0.8l-0.4-1.8c-0.7,0.3-1.6,0.6-2.9,0.6c-2.6,0-4.5-1.8-4.5-4.8C121.9,222.5,123.5,220.3,126.4,220.3z"/>
	<path d="M137.4,218.4c-3.8,0-6.1,3.1-6.1,7s2.4,6.6,6.4,6.6c2.1,0,3.5-0.5,4.3-0.8l-0.4-1.7c-0.9,0.4-1.9,0.9-3.6,0.9
		c-2.4,0-4.4-1.3-4.4-4.3h9.1c0,0,0.1-0.8,0.1-1.3C142.7,222.3,141.6,218.4,137.4,218.4z M133.6,224c0.2-2,1.2-3.8,3.6-3.8
		c2.6,0,3.3,2.8,3.3,3.8H133.6z"/>
	<path d="M160,223.7c0-2.6-0.8-5.3-4.7-5.3c-1.6,0-3.1,0.5-4.2,1.1l0.6,1.5c0.9-0.6,2.2-1,3.4-1c2.6,0,2.9,1.9,2.9,3v0.3
		c-5,0-7.7,1.7-7.7,4.8c0,1.9,1.4,3.7,4,3.7c1.8,0,3.3-0.9,4-1.9h0.1l0.2,2h2.1c-0.2-1-0.6-2.4-0.6-3.5V223.7z M158,227.3
		c0,0.2,0,0.5-0.1,0.7c-0.4,1.1-1.4,2.2-3.1,2.2c-1.2,0-2.3-0.7-2.3-2.2c0-2.5,2.4-3,5.4-2.9V227.3z"/>
	<path d="M170.5,218.5c-2.1,0-3.5,1.5-4.2,2.5h-0.1l-0.1-2h-2.1c0.1,1-0.1,1.8-0.1,3.2v9.8h2v-8.2c0-0.4,0.3-0.8,0.4-1.1
		c0.4-1.3,1.8-2.4,3.4-2.4c2.2,0,3.2,1.7,3.2,3.8v7.8h2v-8.1C175,219.4,172.3,218.5,170.5,218.5z"/>
	<path d="M190,213h-2v8h-0.2c-0.6-1-1.9-2.3-3.9-2.3c-3.2,0-5.8,2.5-5.8,6.8c0,3.9,2.4,6.8,5.5,6.8c2.1,0,3.7-1.3,4.4-2.3h0.1l0.1,2
		h2.1c-0.1-1-0.3-2.6-0.3-3.7V213z M188,226.2c0,0.4-0.1,0.7-0.2,1c-0.4,1.8-1.9,2.8-3.5,2.8c-2.5,0-3.8-2.2-3.8-4.8
		c0-2.9,1.4-5,3.9-5c1.8,0,3.1,1.2,3.5,2.7c0.1,0.3,0.2,0.7,0.2,1V226.2z"/>
	<path d="M201,213.6c-0.9,0-1.5,0.6-1.5,1.5c0,0.8,0.6,1.4,1.4,1.4c0.9,0,1.5-0.6,1.5-1.4C202.4,214.2,201.8,213.6,201,213.6z"/>
	<rect x="200" y="219" width="2" height="13"/>
	<path d="M212.5,218.5c-2.1,0-3.6,1.5-4.2,2.5h-0.1l-0.1-2h-2.1c0.1,1,0.1,1.8,0.1,3.2v9.8h2v-8.2c0-0.4,0.3-0.8,0.4-1.1
		c0.4-1.3,1.9-2.4,3.4-2.4c2.2,0,3.2,1.7,3.2,3.8v7.8h2v-8.1C217,219.4,214.2,218.5,212.5,218.5z"/>
	<path d="M223,215.6l-2,0.7v2.7h-2v2h2v6.5c0,1.5,0.4,2.7,1.1,3.4c0.6,0.6,1.5,1,2.6,1c0.9,0,1.7-0.2,2.1-0.3l-0.1-1.8
		c-0.3,0.1-1,0.2-1.7,0.2c-1.3,0-2.1-0.9-2.1-2.5V221h4v-2h-4V215.6z"/>
	<path d="M234.6,218.4c-3.8,0-6.1,3.1-6.1,7s2.4,6.6,6.4,6.6c2.1,0,3.5-0.5,4.3-0.8l-0.4-1.7c-0.9,0.4-1.9,0.9-3.6,0.9
		c-2.4,0-4.4-1.3-4.4-4.3h9.1c0,0,0.1-0.8,0.1-1.3C240,222.3,238.8,218.4,234.6,218.4z M230.8,224c0.2-2,1.2-3.8,3.6-3.8
		c2.6,0,3.3,2.8,3.3,3.8H230.8z"/>
	<path d="M245,221h-0.1l-0.1-2h-2.1c0.1,1,0.2,2.2,0.2,3.7v9.3h2v-7.3c0-0.4,0.2-0.8,0.2-1.1c0.3-1.8,1.4-3,3.1-3
		c0.3,0,0.7,0,0.7,0.1v-2.2c0-0.1-0.3-0.2-0.5-0.2C246.9,218.3,245.6,220,245,221z"/>
	<path d="M258.3,218.5c-2.1,0-3.8,1.5-4.4,2.5h-0.1l-0.1-2h-2.1c0.1,1,0.4,1.8,0.4,3.2v9.8h2v-8.2c0-0.4,0.1-0.8,0.2-1.1
		c0.4-1.3,1.4-2.4,3-2.4c2.2,0,2.8,1.7,2.8,3.8v7.8h3v-8.1C263,219.4,260.1,218.5,258.3,218.5z"/>
	<path d="M271.7,218.4c-3.8,0-6.1,3.1-6.1,7s2.4,6.6,6.4,6.6c2.1,0,3.5-0.5,4.3-0.8l-0.4-1.7c-0.9,0.4-1.9,0.9-3.6,0.9
		c-2.4,0-4.4-1.3-4.4-4.3h9.1c0,0,0.1-0.8,0.1-1.3C277,222.3,275.9,218.4,271.7,218.4z M267.9,224c0.2-2,1.2-3.8,3.6-3.8
		c2.6,0,3.3,2.8,3.3,3.8H267.9z"/>
	<path d="M283,215.6l-3,0.7v2.7h-2v2h2v6.5c0,1.5,0.5,2.7,1.2,3.4c0.6,0.6,1.6,1,2.7,1c0.9,0,1.7-0.2,2.1-0.3l-0.1-1.8
		c-0.3,0.1-0.6,0.2-1.2,0.2c-1.3,0-1.6-0.9-1.6-2.5V221h3v-2h-3V215.6z"/>
	<path d="M303,223.7c0-2.6-0.7-5.3-4.6-5.3c-1.6,0-3,0.5-4.1,1.1l0.6,1.5c0.9-0.6,2.1-1,3.3-1c2.6,0,2.9,1.9,2.9,3v0.3
		c-5,0-7.7,1.7-7.7,4.8c0,1.9,1.4,3.7,4,3.7c1.8,0,3.3-0.9,4-1.9h0.1l0.2,2h2.1c-0.2-1-0.8-2.4-0.8-3.5V223.7z M301,227.3
		c0,0.2,0.1,0.5,0,0.7c-0.4,1.1-1.4,2.2-3.1,2.2c-1.2,0-2.3-0.7-2.3-2.2c0-2.5,3.4-3,5.4-2.9V227.3z"/>
	<path d="M313.4,220.3c1.3,0,2.2,0.3,2.7,0.6l0.5-1.8c-0.6-0.3-1.9-0.7-3.3-0.7c-4.2,0-7,2.9-7,6.9c0,4,2.5,6.6,6.4,6.6
		c1.7,0,3.1-0.5,3.7-0.8l-0.4-1.8c-0.7,0.3-1.6,0.6-2.9,0.6c-2.6,0-4.5-1.8-4.5-4.8C308.8,222.5,310.4,220.3,313.4,220.3z"/>
	<path d="M328.1,221L328.1,221c-0.7-1-2-2.4-4-2.4c-2.7,0-5.9,2-5.9,6.9c0,3.9,2.5,6.7,5.5,6.7c2.1,0,3.5-1.2,4.2-2.2h0v7h2v-14.8
		c0-1.3,0.4-2.2,0.4-3.2h-2.2L328.1,221z M328,226.3c0,0.3-0.1,0.8-0.2,1.1c-0.5,1.6-1.8,2.6-3.4,2.6c-2.6,0-3.8-2.2-3.8-4.8
		c0-2.9,1.5-5,3.9-5c1.8,0,3,1.2,3.4,2.7c0.1,0.3,0.1,0.7,0.1,1V226.3z"/>
	<path d="M345,219h-2v7.6c0,0.4-0.2,0.9-0.4,1.2c-0.4,1-1.9,2.1-3.4,2.1c-2.1,0-3.2-1.7-3.2-4.1V219h-2v7.2c0,4.5,2.5,5.9,4.5,5.9
		c2.3,0,3.7-1.2,4.4-2.2h0.1l0.1,2h2.1c-0.1-1-0.2-2.6-0.2-3.9V219z"/>
	<rect x="349" y="219" width="2" height="13"/>
	<path d="M350.1,213.6c-0.9,0-1.5,0.6-1.5,1.5c0,0.8,0.6,1.4,1.4,1.4c0.9,0,1.5-0.6,1.5-1.4C351.6,214.2,351,213.6,350.1,213.6z"/>
	<path d="M357.4,221h-0.1l-0.1-2h-2.1c0.1,1-0.1,2.2-0.1,3.7v9.3h2v-7.3c0-0.4,0.3-0.8,0.4-1.1c0.3-1.8,1.3-3,3-3
		c0.3,0,0.6,0,0.6,0.1v-2.2c0-0.1-0.1-0.2-0.4-0.2C359.1,218.3,358,220,357.4,221z"/>
	<path d="M365.3,213.6c-0.9,0-1.5,0.6-1.5,1.5c0,0.8,0.6,1.4,1.4,1.4c0.9,0,1.5-0.6,1.5-1.4C366.7,214.2,366.1,213.6,365.3,213.6z"
		/>
	<rect x="364" y="219" width="2" height="13"/>
	<path d="M376.6,218.5c-2.1,0-3.5,1.5-4.1,2.5h-0.1l-0.1-2h-2.1c0.1,1-0.2,1.8-0.2,3.2v9.8h3v-8.2c0-0.4-0.1-0.8,0-1.1
		c0.4-1.3,1.5-2.4,3.1-2.4c2.2,0,2.9,1.7,2.9,3.8v7.8h2v-8.1C381,219.4,378.4,218.5,376.6,218.5z"/>
	<path d="M394.3,219l-0.1,2h-0.1c-0.6-1-1.8-2.4-4-2.4c-3,0-5.8,2.4-5.8,6.8c0,3.6,2.3,6.6,5.5,6.6c2,0,3.4-0.9,4.1-1.9h0.1v0.8
		c0,3.3-1.8,4.5-4.2,4.5c-1.6,0-3-0.5-3.8-1l-0.6,1.8c1,0.7,2.7,1.1,4.3,1.1c1.6,0,3.3-0.4,4.6-1.6c1.3-1.1,1.7-2.9,1.7-5.9v-7.5
		c0-1.6,0.3-2.2,0.3-3.2H394.3z M394,226.1c0,0.4-0.1,0.9-0.2,1.3c-0.5,1.5-1.8,2.4-3.3,2.4c-2.5,0-3.8-2.1-3.8-4.7
		c0-3,1.6-4.9,3.8-4.9c1.7,0,2.9,1.1,3.3,2.5c0.1,0.3,0.2,0.7,0.2,1.1V226.1z"/>
</g>
</svg>
