<?xml version="1.0" encoding="utf-8"?>
<!-- Generator: Adobe Illustrator 17.1.0, SVG Export Plug-In . SVG Version: 6.00 Build 0)  -->
<!DOCTYPE svg PUBLIC "-//W3C//DTD SVG 1.1//EN" "http://www.w3.org/Graphics/SVG/1.1/DTD/svg11.dtd">
<svg version="1.1" id="Layer_1" xmlns="http://www.w3.org/2000/svg" xmlns:xlink="http://www.w3.org/1999/xlink" x="0px" y="0px"
	 viewBox="0 0 400 400" enable-background="new 0 0 400 400" xml:space="preserve">
<path fill="#ccc" d="M262.8,159.6v65.3c0,1-0.8,1.7-1.7,1.7h-13.3c-1,0-1.7-0.8-1.7-1.7v-65.3c0-1,0.8-1.7,1.7-1.7h13.3
	C262,157.9,262.8,158.6,262.8,159.6z M366.7,157.9h-14.9c-0.8,0-1.4,0.5-1.7,1.2l-11.8,38.5l-13-38.6c-0.2-0.7-0.9-1.2-1.7-1.2
	h-10.4c-0.8,0-1.4,0.5-1.7,1.2l-13,38.6l-11.8-38.5c-0.2-0.7-0.9-1.2-1.7-1.2h-14.9c-0.6,0-1.1,0.3-1.4,0.7c-0.3,0.5-0.4,1-0.2,1.6
	l22,65.3c0.2,0.7,0.9,1.2,1.7,1.2h11.9c0.8,0,1.4-0.5,1.7-1.2l12.8-38.1l12.8,38.1c0.2,0.7,0.9,1.2,1.7,1.2h11.8
	c0.8,0,1.4-0.5,1.7-1.2l22-65.3c0.2-0.5,0.1-1.1-0.2-1.6C367.8,158.1,367.3,157.9,366.7,157.9z M389.2,157.9h-13.3
	c-1,0-1.7,0.8-1.7,1.7v65.3c0,1,0.8,1.7,1.7,1.7h13.3c1,0,1.7-0.8,1.7-1.7v-65.3C390.9,158.6,390.1,157.9,389.2,157.9z M238.2,224.5
	c0.8,0.8,0.1,2.2-1,2.2h-16.4c-0.7,0-1.3-0.3-1.7-0.8l-2.7-3.4c-5.6,3.7-12.4,5.8-19.5,5.8c-19.9,0-36.1-16.2-36.1-36.1
	s16.2-36.1,36.1-36.1s36.1,16.2,36.1,36.1c0,7.2-2.1,13.8-5.7,19.5L238.2,224.5z M205.9,209.8l-7.1-8.6c-0.7-0.9-0.1-2.2,1-2.2h14.9
	c0.7-2.1,1.1-4.4,1.1-6.7c0-10.8-8-20-19-20s-19,9.3-19,20s8,19.9,19,19.9C200.2,212.2,203.3,211.4,205.9,209.8z M119.8,224.1
	c0.4,2.7-0.4,3.9-1.3,3.9c-0.9,0-2.1-1.1-3.6-3.3c-1.4-2.1-1.8-4.6-1.2-5.9c0.4-0.8,1.4-1.2,2.5-0.7
	C118.7,219,119.6,222.4,119.8,224.1z M107.1,230.1c2.7,2.3,3.6,5.1,2.1,7.1c-0.8,1.1-2.1,1.6-3.7,1.6c-1.5,0-3.2-0.6-4.3-1.5
	c-2.5-2.2-3.3-5.8-1.6-7.7c0.6-0.8,1.7-1.2,2.9-1.2C104.1,228.2,105.8,228.9,107.1,230.1z M102.5,252.5c11.9,0,24.8,4.1,39.1,16.8
	c1.4,1.2,3.4-0.3,2.1-1.9c-14-17.7-27-21.1-39.9-24c-15.9-3.5-24-12.4-29.7-22.2c-1.1-1.9-1.6-1.6-1.7,0.9c-0.1,3,0.1,7.1,0.8,11.1
	l0,0c-0.6,0-1.3,0-1.9,0c-22.7,0-41.1-18.4-41.1-41.1s18.2-41,40.9-41s41.1,18.4,41.1,41.1c0,1.6-0.1,3.3-0.3,4.8
	c-2.9-0.5-8.8-0.6-13-0.2c-1.5,0.1-1.3,0.8-0.2,1.1c13.5,2.4,22.9,10.9,25,26.1c0,0.3,0.5,0.4,0.7,0.2c5.6-9.4,8.7-20.2,8.7-31.8
	c0.1-34.5-27.8-62.2-62-62.2s-62,27.8-62,62s27.8,62.1,62.1,62.1C80.3,254.4,89.2,252.5,102.5,252.5z"/>
</svg>
