<?xml version="1.0" encoding="utf-8"?>
<!-- Generator: Adobe Illustrator 17.1.0, SVG Export Plug-In . SVG Version: 6.00 Build 0)  -->
<!DOCTYPE svg PUBLIC "-//W3C//DTD SVG 1.1//EN" "http://www.w3.org/Graphics/SVG/1.1/DTD/svg11.dtd">
<svg version="1.1" id="Layer_1" xmlns="http://www.w3.org/2000/svg" xmlns:xlink="http://www.w3.org/1999/xlink" x="0px" y="0px"
	 viewBox="0 0 400 400" enable-background="new 0 0 400 400" xml:space="preserve">
	<g fill="#ccc">
		<g>
	<g>
		<g>
			<polygon points="171.7,157.8 157.3,242.4 180.4,242.4 194.8,157.8 			"/>
		</g>
	</g>
			<g>
		<g>
			<path d="M137.9,157.9l-22.6,57.7l-2.4-8.7c-4.5-10.5-17.1-25.6-32-35.1l20.7,70.6l24.4,0l36.3-84.5L137.9,157.9z"/>
		</g>
	</g>
			<g>
		<g>
			<path d="M104.2,163.9c-1.3-5.2-5.2-6.7-10.1-6.9H58.3l-0.3,1.7c27.8,6.8,46.3,23,53.9,42.6L104.2,163.9z"/>
		</g>
	</g>
			<g>
		<g>
			<path d="M241.6,174c7.5-0.1,13,1.5,17.3,3.2l2.1,1l3.1-18.4c-4.6-1.7-11.7-3.6-20.7-3.6c-22.8,0-38.9,11.5-39,27.9
				c-0.1,12.2,11.4,19,20.2,23c9,4.2,12,6.8,12,10.5c-0.1,5.7-7.2,8.3-13.8,8.3c-9.2,0-14.1-1.3-21.7-4.4l-3-1.4l-3.2,19
				c5.4,2.4,15.4,4.4,25.7,4.5c24.3,0,40-11.3,40.2-28.9c0.1-9.6-6.1-17-19.4-23c-8.1-3.9-13-6.5-13-10.5
				C228.4,177.8,232.5,174,241.6,174z"/>
		</g>
	</g>
			<g>
		<g>
			<path d="M323.3,157.9h-17.8c-5.5,0-9.7,1.5-12.1,7l-34.3,77.6h24.2c0,0,4-10.4,4.8-12.7c2.7,0,26.2,0,29.6,0
				c0.7,3,2.8,12.7,2.8,12.7h21.4L323.3,157.9z M294.8,212.4c1.9-4.9,9.2-23.7,9.2-23.7c-0.1,0.2,1.9-4.9,3.1-8.1l1.6,7.3
				c0,0,4.4,20.2,5.3,24.4H294.8z"/>
		</g>
	</g>
</g>
	</g>
</svg>
