<svg xmlns="http://www.w3.org/2000/svg" viewBox="0 0 600 600"><path fill="#9C9" d="M303.9 26.6C152.5 24 27.6 144.7 25 296.1c-1.5 85.9 36.8 163 97.7 214.3l2.1-1.8c1.3-1.1 2.7-2.1 4.1-3.1 2.2-1.6 4.4-3 6.8-4.3l81.9-44.6c2-1.1 3.9-2.4 5.6-3.8 7.4-6.3 11.8-15.5 11.8-25.5v-33.5s-19.4-23.3-30-57c0-.1 0-.1-.1-.2-.3-.9-.5-1.7-.8-2.6-.1-.4-.2-.7-.3-1.1-.2-.6-.3-1.3-.5-1.9-.2-.6-.3-1.3-.5-1.9l-.3-1.2c-.2-.7-.4-1.4-.5-2.1-8.3-4.7-13.9-13.5-13.9-23.7l-5.8-36.7c0-8.1 9.4-15.3 15-20.4v-53.1s-10.3-77.6 91.1-82.3c3.5-.2 7-.3 10.8-.3 50.5 0 76 16.9 88.7 35.4 15.4 22.4 12.2 47.2 12.2 47.2V245c5.6 5 13.9 12.3 13.9 20.4l-4.7 36.7c0 8.5-3.9 16-10 21 0 0-.1 0-.1.1-.5.4-1 .8-1.5 1.1-.1.1-.2.2-.3.2-.4.3-.9.6-1.3.9-.1.1-.3.2-.4.3-.1 0-.1.1-.2.1-9.3 39.6-33 68-33 68v33.6c0 12.2 6.7 23.4 17.4 29.3l81.8 44.6c4.8 2.6 9.1 5.9 13.1 9.4-.2.2-.4.3-.5.5.2.1.3.3.5.4 59.1-49.3 97.3-122.9 98.7-205.9C576 154 455.3 29.2 303.9 26.6z"/><path fill="#333" d="M474.7 510.5c-4-3.5-8.3-6.7-13.1-9.4l-81.8-44.6c-10.7-5.9-17.4-17.1-17.4-29.3v-33.6s23.7-28.4 33-68c8.3-4.7 13.9-13.5 13.9-23.7l4.7-36.7c0-8.1-8.2-15.3-13.9-20.4v-53.1s10.9-82.5-100.9-82.5h-1c-111.8 0-100.9 82.5-100.9 82.5v53.1c-5.6 5-15 12.3-15 20.4l5.8 36.7c0 10.1 5.6 18.9 13.9 23.7 9.3 39.6 33 68 33 68v33.6c0 12.2-6.7 23.4-17.4 29.3l-81.8 44.6c-4.8 2.6-9.1 5.9-13.1 9.4.2.2.4.3.5.5-.2.2-.4.3-.5.5 47.5 39.7 108.7 63.6 175.5 63.6h1c66.8 0 128-23.9 175.5-63.6-.2-.2-.4-.3-.5-.5.2-.2.3-.4.5-.5z"/></svg>