<svg width="105" height="140" xmlns="http://www.w3.org/2000/svg" viewBox="0 0 105 140"><defs><style>.st1{stroke-dasharray:500;stroke-dashoffset:500;animation:dash linear 2.5s infinite}@keyframes dash{0%{stroke-dashoffset:1000}to{stroke-dashoffset:0}}</style></defs><path class="st1" fill="none" stroke="#009245" stroke-width="2" stroke-miterlimit="10" d="M80.2 49.6c.3-.7.4-1.1.4-1.9 0-3.6-2.9-5.7-6.5-5.7h-8.8l-3-3.7 4.2-4.8c5.8 2.3 12.7 1 17.5-3.7 6.4-6.3 6.4-16.7 0-23C77.6.5 67.3.4 61 6.8c-4.7 4.7-5.9 11.6-3.6 17.4l-4.2 4.2-4.2-4.2c2.3-5.8 1.1-12.7-3.6-17.4-6.4-6.3-16.7-6.3-23 0-6.4 6.3-6.4 16.6 0 23 4.7 4.7 11.6 5.9 17.5 3.6l4.2 4.9-3 3.7h-9.4c-3.6 0-6.5 2.2-6.5 5.8 0 .8.2 1.3.4 2-14.1 8.4-23 23.3-23 40.3 0 26.8 21.2 47.9 49.8 47.9 28.8 0 50.2-21.5 50.2-48 0-17.1-8.7-32-22.4-40.4zm-27.4 65.9c-14.5 0-24.3-11.9-24.3-25.4 0-13.9 9-25.4 24-25.4 14.5 0 24.3 11.9 24.3 25.4 0 13.9-9 25.4-24 25.4z"/></svg>