<svg xmlns="http://www.w3.org/2000/svg" viewBox="0 0 48 48"><circle fill="#4D76A1" cx="24" cy="24" r="24"/><path fill="#FFF" d="M23.1 34.5H25s.6-.1.9-.4c.3-.3.3-.8.3-.8s0-2.5 1.1-2.9c1.2-.4 2.6 2.4 4.2 3.5 1.2.8 2.1.6 2.1.6l4.2-.1s2.2-.1 1.2-1.9c-.1-.1-.6-1.3-3.1-3.6-2.6-2.4-2.3-2.1.9-6.3 1.9-2.6 2.7-4.2 2.5-4.8-.2-.6-1.7-.5-1.7-.5h-4.7s-.4 0-.6.1c-.3.2-.4.5-.4.5s-.7 2-1.8 3.7c-2.1 3.6-3 3.8-3.3 3.5-.8-.5-.6-2.1-.6-3.2 0-3.5.5-4.9-1-5.3-.5-.1-.9-.2-2.2-.2-1.7 0-3.1 0-3.9.4-.5.3-1 .9-.7.9.3 0 1 .2 1.4.7.5.7.5 2.1.5 2.1s.3 4.1-.7 4.6c-.6.3-1.5-.4-3.4-3.6-1-1.7-1.7-3.5-1.7-3.5s-.1-.3-.4-.5c-.3-.2-.7-.3-.7-.3H8.9s-.7 0-.9.3c-.2.3 0 .8 0 .8s3.5 8.2 7.5 12.4c3.4 4.1 7.6 3.8 7.6 3.8z"/></svg>