<svg xmlns="http://www.w3.org/2000/svg" viewBox="0 0 400 400"><path d="M185.9 275.9c-1.8 0-2.5-1.1-2.5-2.8v-7.6h6.1v-3.4h-6.1v-5.2h-3.7v5.2h-3.4v3.4h3.4v7.8c0 3.9 1.6 6.3 5.9 6.3 1.6 0 3.4-.5 4.6-1.3l-1.1-3.2c-1.1.7-2.3.8-3.2.8zM127.3 261.7c-2.2 0-4.4.7-6.1 3-1.3-2-3-3-5.7-3-1.8 0-3.5.5-5 2.5V262h-3.7v17.1h3.7v-9.4c0-3 1.6-4.4 4.1-4.4s3.7 1.6 3.7 4.4v9.4h3.7v-9.4c0-3 1.8-4.4 4.1-4.4 2.5 0 3.7 1.6 3.7 4.4v9.4h4.1v-10.7c.1-4.1-2.3-6.7-6.6-6.7zM167.7 268.8l-1.8-.2c-1.6-.2-2.8-.5-2.8-1.6 0-1.3 1.3-2 3.2-2 2.2 0 4.3.9 5.4 1.5l1.6-3c-1.8-1.3-4.3-1.8-6.9-1.8-4.3 0-7.1 2.2-7.1 5.5 0 2.8 2.2 4.4 5.9 5l1.8.2c2 .4 3 .9 3 1.8 0 1.3-1.5 2.2-3.9 2.2s-4.4-.9-5.7-1.8l-1.8 2.8c2 1.5 4.6 2.2 7.3 2.2 5 0 7.8-2.3 7.8-5.5-.2-3.1-2.4-4.8-6-5.3zM151.3 264.2c-1.3-1.6-3-2.5-5.4-2.5-4.8 0-8.5 3.7-8.5 8.9s3.7 8.9 8.5 8.9c2.5 0 4.3-.9 5.4-2.5v2.2h3.7v-17.1h-3.7v2.1zm-5 11.9c-3.2-.2-5.2-2.5-5.2-5.5s2-5.5 5.2-5.5c3 0 5.2 2.3 5.2 5.5 0 3-2.1 5.5-5.2 5.5zM268.2 264.2V262h-3.7v17.1h3.7v-9.6c0-2.8 1.3-4.4 3.5-4.4.7 0 1.6.2 2.3.4l1.1-3.5c-.7-.2-1.8-.2-2.5-.2-2.2-.1-3.5.9-4.4 2.4zM255.7 264.2c-1.3-1.6-3-2.5-5.4-2.5-4.8 0-8.5 3.7-8.5 8.9s3.7 8.9 8.5 8.9c2.5 0 4.3-.9 5.4-2.5v2.2h3.7v-17.1h-3.7v2.1zm-4.8 11.9c-3.2-.2-5.2-2.5-5.2-5.5s2-5.5 5.2-5.5c3 0 5.2 2.3 5.2 5.5 0 3-2.2 5.5-5.2 5.5zM290 264.2c-1.3-1.6-3-2.5-5.4-2.5-4.8 0-8.5 3.7-8.5 8.9s3.7 8.9 8.5 8.9c2.5 0 4.3-.9 5.4-2.5v2.2h3.7v-23.9H290v8.9zm-4.8 11.9c-3.2-.2-5.2-2.5-5.2-5.5s2-5.5 5.2-5.5c3 0 5.2 2.3 5.2 5.5 0 3-2.2 5.5-5.2 5.5zM216.7 264.2V262H213v17.1h3.7v-9.6c0-2.8 1.3-4.4 3.5-4.4.7 0 1.6.2 2.3.4l1.1-3.5c-.7-.2-1.8-.2-2.5-.2-2.1-.1-3.5.9-4.4 2.4zM201 261.7c-5 0-8.5 3.5-8.5 8.9s3.5 8.9 8.7 8.9c2.5 0 5-.7 6.9-2.3l-1.8-2.6c-1.5 1.1-3.2 1.8-5 1.8-2.3 0-4.6-1.1-5.2-4.1h12.6v-1.5c.3-5.6-2.9-9.1-7.7-9.1zm-4.6 7.3c.4-2.3 2-4.1 4.6-4.1 2.3 0 3.9 1.5 4.3 4.1h-8.9zM233.7 265.1c1.6 0 3 .5 4.4 1.6l1.8-3c-1.8-1.5-3.5-2-6.1-2-5.5 0-9.1 3.7-9.1 8.9s3.5 8.9 9.1 8.9c2.5 0 4.3-.5 6.1-2l-1.8-3c-1.5 1.1-2.8 1.6-4.4 1.6-3 0-5.2-2.2-5.2-5.5.2-3.3 2.2-5.4 5.2-5.5zM177.5 182.6c0 18.5 8.4 36.2 22.5 47.9 14.3-11.8 22.5-29.2 22.5-47.9 0-18.6-8.2-36-22.5-47.9-14.3 11.9-22.5 29.3-22.5 47.9z"/><path d="M160.4 244.7c13.2 0 25.6-4.1 36.2-11.7 0 0 .1 0 .1-.1-14.5-12.4-23.2-31-23.2-50.3 0-19.4 8.4-37.7 23.2-50.3l-.1-.1c-10.6-7.6-23.1-11.7-36.2-11.7-34.2 0-62.1 27.9-62.1 62.1s27.8 62.1 62.1 62.1zM226.5 182.6c0 19.6-8.4 37.8-23.2 50.3 0 0 .1 0 .1.1 10.6 7.6 23.1 11.7 36.2 11.7 34.2 0 62.1-27.9 62.1-62.1s-27.9-62.1-62.1-62.1c-13.2 0-25.6 4.1-36.2 11.7l-.1.1c14.8 12.6 23.2 30.9 23.2 50.3z"/></svg>