<svg xmlns="http://www.w3.org/2000/svg" viewBox="0 0 400 400"><path d="M32.4 185.4c1.9-1.7 2.8-5 2.8-9.8 0-4.8-1-8.1-2.9-9.8-2-1.7-5.5-2.6-10.8-2.6-6.2 0-11.3.2-14.3.5V202h8v-14.4c2 .3 4.8.4 7.3.4 4.6.1 8-.8 9.9-2.6zM15 182v-12.3l6-.1c2.2 0 3.7.4 4.5 1.2s1.2 2.4 1.2 4.7c0 2.4-.4 4.1-1.2 4.9-.8.8-2.3 1.5-4.4 1.5H15zM49 186.8l5.8.1c1.1 0 2 .2 2.6.7.6.5 1.1 1.4 1.4 2.7l2.9 11.8h8.9l-3.3-12c-.7-3.2-2.3-5.2-5.3-5.9v-.3c2-.3 4.4-1.3 5.5-2.9 1.1-1.6 1.7-3.8 1.7-6.6 0-4.3-1.1-7.2-3.2-8.8-2.1-1.6-5.6-2.4-10.7-2.4-6.2 0-11.3.2-14.3.5V202h8v-15.2zm0-17.1l6-.1c2.2 0 3.7.4 4.5 1.1.8.7 1.2 2.1 1.2 4.2s-.4 3.8-1.2 4.6c-.8.8-2.3 1.4-4.5 1.4h-6v-11.2zM90.9 202.4c6.1 0 10.3-1.4 12.7-4.2 2.4-2.8 3.6-8 3.6-15.5s-1.2-12.7-3.6-15.5c-2.4-2.8-6.6-4.2-12.7-4.2s-10.3 1.4-12.7 4.2c-2.4 2.8-3.5 8-3.5 15.5s1.2 12.7 3.5 15.5c2.4 2.8 6.6 4.2 12.7 4.2zM85 172.5c1-1.8 3-2.7 5.9-2.7 2.9 0 4.8.9 5.9 2.7 1 1.8 1.6 5.2 1.6 10.2 0 5-.5 8.4-1.6 10.2-1 1.8-3 2.7-5.9 2.7-2.9 0-4.8-.9-5.9-2.7-1-1.8-1.6-5.2-1.6-10.2.1-5 .6-8.4 1.6-10.2zM128.3 202.4c4.8 0 8.9-.5 12.2-1.5l-.7-6.2c-2.5.3-6.4.5-11.5.5-2.8 0-4.6-.9-5.6-2.6-1-1.7-1.5-5-1.5-9.8s.5-8 1.5-9.8c1-1.7 2.9-2.6 5.6-2.6 4.1 0 7.7.1 10.7.3l.7-6.3c-3.3-.8-7.1-1.3-11.4-1.3-5.9 0-10 1.5-12.4 4.4-2.4 2.9-3.6 8-3.6 15.3s1.2 12.3 3.6 15.2c2.4 2.9 6.5 4.4 12.4 4.4zM171.5 201.2l-.4-6.2h-14.6c-.9 0-1.6-.1-2-.6-.4-.4-.6-1.1-.6-2.1V185h15v-6h-15v-5.9c0-1 .2-1.4.6-1.8.4-.4 1-.3 2-.3h14.6l.4-6.6c-3.5-.4-9.3-.7-17.6-.7-2.5 0-4.8.6-6.3 2s-2.6 3.2-2.6 5.5v23c0 2.3 1.1 4.2 2.6 5.6 1.5 1.4 3.7 2 6.2 2 8.3 0 14.3-.2 17.7-.6zM195.6 180.3l-7.2-2.5c-1.5-.5-2.6-1-3.1-1.6-.5-.6-.8-1.5-.8-2.7 0-1.5.4-2.5 1.1-2.9.7-.4 2.2-.6 4.4-.6 4.7 0 8.7.1 11.9.2l.5-5.7c-3.5-1-7.7-1.5-12.5-1.5-5.1 0-8.7.7-10.8 2.1-2 1.4-3.1 4.2-3.1 8.4 0 2.9.6 5.2 1.8 6.9 1.2 1.8 3.2 3.2 6.1 4.2l7.7 2.7c1.4.4 2.3.9 2.8 1.5.5.5.8 1.4.8 2.7 0 1.5-.4 2.5-1.1 3-.8.5-2.2.7-4.5.7-.5 0-4.7-.1-12.6-.3l-.5 6.1c4.4 1 8.8 1.4 13 1.4 5.3 0 9-.8 11-2.3 2.1-1.5 3.1-4.4 3.1-8.7 0-2.9-.6-5.2-1.8-7-1.2-1.7-3.2-3.1-6.2-4.1zM216 184.6l7.7 2.7c1.4.4 2.3.9 2.8 1.5.5.5.8 1.4.8 2.7 0 1.5-.4 2.5-1.1 3-.8.5-2.2.7-4.5.7-.5 0-4.7-.1-12.6-.3l-.5 6.1c4.4 1 8.8 1.4 13 1.4 5.3 0 9-.8 11-2.3 2.1-1.5 3.1-4.4 3.1-8.7 0-2.9-.6-5.2-1.8-7-1.2-1.8-3.3-3.2-6.2-4.2l-7.2-2.5c-1.5-.5-2.6-1-3.1-1.6-.6-.6-.8-1.5-.8-2.7 0-1.5.4-2.5 1.1-2.9.7-.4 2.2-.6 4.4-.6 4.7 0 8.7.1 11.9.2l.5-5.7c-3.5-1-7.7-1.5-12.5-1.5-5.1 0-8.7.7-10.8 2.1-2 1.4-3.1 4.2-3.1 8.4 0 2.9.6 5.2 1.8 6.9 1.3 1.9 3.3 3.3 6.1 4.3zM242 164h8v38h-8zM282 185.6c0 1.4 0 3.4.2 6.4h-.6c-.9-2-1.8-4.3-2.8-6.1l-9.6-19.7c-.4-.9-.9-1.4-1.4-1.8-.5-.4-1.1-.4-2-.4h-5.1c-2 0-2.8.7-2.8 2.7V202h8v-22.9c0-2.2-.4-4.1-.7-6.1h.6c.3 2 1.1 3.3 2.3 5.9l10 20.3c.4.9.9 1.7 1.4 2.1.5.4 1.1.7 2 .7h5.2c2 0 3.2-1.3 3.2-3.3V164h-8v21.6zM308.3 202.4c4.4 0 8-1.4 11-4.4l.8 3.9h5.9v-22h-8v13.3c-2 1.3-4.6 1.9-6.8 1.9-2.4 0-4-.9-4.9-2.6-.9-1.8-1.3-5-1.3-9.7 0-2.8.1-5 .4-6.6.3-1.6.8-2.9 1.5-3.8.7-.9 1.6-1.5 2.6-1.8s2.3-.4 4-.4c3 0 6.6.1 10.7.3l.7-6.2c-3.2-.9-7.1-1.3-11.7-1.3-6.3 0-10.7 1.4-13.2 4.2-2.5 2.8-3.8 7.9-3.8 15.4 0 7 1 12 2.9 15.1 1.9 3.2 5 4.7 9.2 4.7zM336.2 202c.7 0 1.1-.3 1.4-.5.3-.3.4-.9.4-1.5v-3c0-.7-.2-1.2-.4-1.5-.3-.3-.7-.5-1.4-.5h-1.5c-.6 0-1 .2-1.3.5-.3.3-.4.8-.4 1.5v3c0 .7.1 1.3.4 1.5.3.3.7.5 1.3.5h1.5zM358 186.7v-.1c0-.4 1.1-1 1.7-1.8l8.2-9.8h-5.5l-8.5 10h-3.5c.2-1 .5-2.9.5-4.7V163h-5v39h5v-9.4c0-1.2-.4-2.6-.6-4.6h3.6l9.3 14h5.4l-9.1-13c-.3-.9-1.5-1.8-1.5-2.3zM395 198h-17.3l17.3-19.3V175h-22v4h16.7L372 197.9v4.1h23zM9.7 218.4c-3.8 0-6.1 3.1-6.1 7S6 232 10 232c2.1 0 3.5-.5 4.3-.8l-.4-1.7c-.9.4-1.9.9-3.6.9C8 230.3 6 229 5.9 226H15s.1-.8.1-1.3c0-2.4-1.1-6.3-5.4-6.3zM5.9 224c.2-2 1.2-3.8 3.6-3.8 2.6 0 3.3 2.8 3.3 3.8H5.9zM17 224h7v1h-7zM33.5 220.3c1.3 0 2.2.3 2.7.6l.5-1.8c-.6-.3-1.9-.7-3.3-.7-4.2 0-7 2.9-7 6.9s2.5 6.6 6.4 6.6c1.7 0 3.1-.5 3.7-.8l-.4-1.8c-.7.3-1.6.6-2.9.6-2.6 0-4.5-1.8-4.5-4.8.2-2.6 1.8-4.8 4.8-4.8zM44.7 218.4c-3.6 0-6.4 2.5-6.4 6.9 0 4.1 2.7 6.7 6.2 6.7 3.1 0 6.4-2.1 6.4-6.9.1-4-2.4-6.7-6.2-6.7zm-.1 11.7c-2.3 0-3.9-2.1-3.9-5 0-2.5 1.2-5 4-5s3.9 2.8 3.9 5c0 2.9-1.7 5-4 5zM68 218.4c-1.2 0-2 .3-2.8.9-.5.4-.9.7-1.3 1.7h-.1c-.6-1-1.9-2.5-3.7-2.5-2.1 0-3.3 1.5-4.1 2.5l-.1-2h-2.1c.1 1 .2 1.8.2 3.2v9.8h2v-8.2c0-.4.2-.8.3-1.1.4-1.2 1.5-2.4 3-2.4 1.8 0 2.7 1.5 2.7 3.6v8.1h2v-8.4c0-.4.3-.9.4-1.2.4-1.1 1.5-2.1 2.8-2.1 1.9 0 2.8 1.5 2.8 4v7.7h2v-8c0-4.5-2.3-5.6-4-5.6zM90.6 218.4c-1.2 0-2.2.3-2.9.9-.5.4-1.1.7-1.5 1.7h-.1c-.6-1-1.9-2.5-3.7-2.5-2.1 0-3.3 1.5-4.1 2.5h-.1l-.1-2H76c.1 1-.1 1.8-.1 3.2v9.8h2v-8.2c0-.4.3-.8.5-1.1.4-1.2 1.4-2.4 2.9-2.4 1.8 0 2.7 1.5 2.7 3.6v8.1h3v-8.4c0-.4-.1-.9 0-1.2.4-1.1 1.1-2.1 2.5-2.1 1.9 0 2.5 1.5 2.5 4v7.7h3v-8c0-4.5-2.7-5.6-4.4-5.6zM103.7 218.4c-3.8 0-6.1 3.1-6.1 7s2.4 6.6 6.4 6.6c2.1 0 3.5-.5 4.3-.8l-.4-1.7c-.9.4-1.9.9-3.6.9-2.4 0-4.4-1.3-4.4-4.3h9.1s.1-.8.1-1.3c-.1-2.5-1.2-6.4-5.4-6.4zm-3.8 5.6c.2-2 1.2-3.8 3.6-3.8 2.6 0 3.3 2.8 3.3 3.8h-6.9zM114.1 221h-.1l-.1-2h-2.1c.1 1 .2 2.2.2 3.7v9.3h2v-7.3c0-.4.2-.8.2-1.1.3-1.8 1.4-3 3.1-3 .3 0 .7 0 .7.1v-2.2c0-.1-.2-.2-.5-.2-1.6 0-2.8 1.7-3.4 2.7zM126.4 220.3c1.3 0 2.2.3 2.7.6l.5-1.8c-.6-.3-1.9-.7-3.3-.7-4.2 0-7 2.9-7 6.9s2.5 6.6 6.4 6.6c1.7 0 3.1-.5 3.7-.8l-.4-1.8c-.7.3-1.6.6-2.9.6-2.6 0-4.5-1.8-4.5-4.8.3-2.6 1.9-4.8 4.8-4.8zM137.4 218.4c-3.8 0-6.1 3.1-6.1 7s2.4 6.6 6.4 6.6c2.1 0 3.5-.5 4.3-.8l-.4-1.7c-.9.4-1.9.9-3.6.9-2.4 0-4.4-1.3-4.4-4.3h9.1s.1-.8.1-1.3c-.1-2.5-1.2-6.4-5.4-6.4zm-3.8 5.6c.2-2 1.2-3.8 3.6-3.8 2.6 0 3.3 2.8 3.3 3.8h-6.9zM160 223.7c0-2.6-.8-5.3-4.7-5.3-1.6 0-3.1.5-4.2 1.1l.6 1.5c.9-.6 2.2-1 3.4-1 2.6 0 2.9 1.9 2.9 3v.3c-5 0-7.7 1.7-7.7 4.8 0 1.9 1.4 3.7 4 3.7 1.8 0 3.3-.9 4-1.9h.1l.2 2h2.1c-.2-1-.6-2.4-.6-3.5v-4.7zm-2 3.6c0 .2 0 .5-.1.7-.4 1.1-1.4 2.2-3.1 2.2-1.2 0-2.3-.7-2.3-2.2 0-2.5 2.4-3 5.4-2.9v2.2zM170.5 218.5c-2.1 0-3.5 1.5-4.2 2.5h-.1l-.1-2H164c.1 1-.1 1.8-.1 3.2v9.8h2v-8.2c0-.4.3-.8.4-1.1.4-1.3 1.8-2.4 3.4-2.4 2.2 0 3.2 1.7 3.2 3.8v7.8h2v-8.1c.1-4.4-2.6-5.3-4.4-5.3zM190 213h-2v8h-.2c-.6-1-1.9-2.3-3.9-2.3-3.2 0-5.8 2.5-5.8 6.8 0 3.9 2.4 6.8 5.5 6.8 2.1 0 3.7-1.3 4.4-2.3h.1l.1 2h2.1c-.1-1-.3-2.6-.3-3.7V213zm-2 13.2c0 .4-.1.7-.2 1-.4 1.8-1.9 2.8-3.5 2.8-2.5 0-3.8-2.2-3.8-4.8 0-2.9 1.4-5 3.9-5 1.8 0 3.1 1.2 3.5 2.7.1.3.2.7.2 1v2.3zM201 213.6c-.9 0-1.5.6-1.5 1.5 0 .8.6 1.4 1.4 1.4.9 0 1.5-.6 1.5-1.4 0-.9-.6-1.5-1.4-1.5zM200 219h2v13h-2zM212.5 218.5c-2.1 0-3.6 1.5-4.2 2.5h-.1l-.1-2H206c.1 1 .1 1.8.1 3.2v9.8h2v-8.2c0-.4.3-.8.4-1.1.4-1.3 1.9-2.4 3.4-2.4 2.2 0 3.2 1.7 3.2 3.8v7.8h2v-8.1c-.1-4.4-2.9-5.3-4.6-5.3zM223 215.6l-2 .7v2.7h-2v2h2v6.5c0 1.5.4 2.7 1.1 3.4.6.6 1.5 1 2.6 1 .9 0 1.7-.2 2.1-.3l-.1-1.8c-.3.1-1 .2-1.7.2-1.3 0-2.1-.9-2.1-2.5V221h4v-2h-4v-3.4zM234.6 218.4c-3.8 0-6.1 3.1-6.1 7s2.4 6.6 6.4 6.6c2.1 0 3.5-.5 4.3-.8l-.4-1.7c-.9.4-1.9.9-3.6.9-2.4 0-4.4-1.3-4.4-4.3h9.1s.1-.8.1-1.3c0-2.5-1.2-6.4-5.4-6.4zm-3.8 5.6c.2-2 1.2-3.8 3.6-3.8 2.6 0 3.3 2.8 3.3 3.8h-6.9zM245 221h-.1l-.1-2h-2.1c.1 1 .2 2.2.2 3.7v9.3h2v-7.3c0-.4.2-.8.2-1.1.3-1.8 1.4-3 3.1-3 .3 0 .7 0 .7.1v-2.2c0-.1-.3-.2-.5-.2-1.5 0-2.8 1.7-3.4 2.7zM258.3 218.5c-2.1 0-3.8 1.5-4.4 2.5h-.1l-.1-2h-2.1c.1 1 .4 1.8.4 3.2v9.8h2v-8.2c0-.4.1-.8.2-1.1.4-1.3 1.4-2.4 3-2.4 2.2 0 2.8 1.7 2.8 3.8v7.8h3v-8.1c0-4.4-2.9-5.3-4.7-5.3zM271.7 218.4c-3.8 0-6.1 3.1-6.1 7s2.4 6.6 6.4 6.6c2.1 0 3.5-.5 4.3-.8l-.4-1.7c-.9.4-1.9.9-3.6.9-2.4 0-4.4-1.3-4.4-4.3h9.1s.1-.8.1-1.3c-.1-2.5-1.2-6.4-5.4-6.4zm-3.8 5.6c.2-2 1.2-3.8 3.6-3.8 2.6 0 3.3 2.8 3.3 3.8h-6.9zM283 215.6l-3 .7v2.7h-2v2h2v6.5c0 1.5.5 2.7 1.2 3.4.6.6 1.6 1 2.7 1 .9 0 1.7-.2 2.1-.3l-.1-1.8c-.3.1-.6.2-1.2.2-1.3 0-1.6-.9-1.6-2.5V221h3v-2h-3v-3.4zM303 223.7c0-2.6-.7-5.3-4.6-5.3-1.6 0-3 .5-4.1 1.1l.6 1.5c.9-.6 2.1-1 3.3-1 2.6 0 2.9 1.9 2.9 3v.3c-5 0-7.7 1.7-7.7 4.8 0 1.9 1.4 3.7 4 3.7 1.8 0 3.3-.9 4-1.9h.1l.2 2h2.1c-.2-1-.8-2.4-.8-3.5v-4.7zm-2 3.6c0 .2.1.5 0 .7-.4 1.1-1.4 2.2-3.1 2.2-1.2 0-2.3-.7-2.3-2.2 0-2.5 3.4-3 5.4-2.9v2.2zM313.4 220.3c1.3 0 2.2.3 2.7.6l.5-1.8c-.6-.3-1.9-.7-3.3-.7-4.2 0-7 2.9-7 6.9s2.5 6.6 6.4 6.6c1.7 0 3.1-.5 3.7-.8l-.4-1.8c-.7.3-1.6.6-2.9.6-2.6 0-4.5-1.8-4.5-4.8.2-2.6 1.8-4.8 4.8-4.8zM328.1 221c-.7-1-2-2.4-4-2.4-2.7 0-5.9 2-5.9 6.9 0 3.9 2.5 6.7 5.5 6.7 2.1 0 3.5-1.2 4.2-2.2v7h2v-14.8c0-1.3.4-2.2.4-3.2h-2.2v2zm-.1 5.3c0 .3-.1.8-.2 1.1-.5 1.6-1.8 2.6-3.4 2.6-2.6 0-3.8-2.2-3.8-4.8 0-2.9 1.5-5 3.9-5 1.8 0 3 1.2 3.4 2.7.1.3.1.7.1 1v2.4zM345 219h-2v7.6c0 .4-.2.9-.4 1.2-.4 1-1.9 2.1-3.4 2.1-2.1 0-3.2-1.7-3.2-4.1V219h-2v7.2c0 4.5 2.5 5.9 4.5 5.9 2.3 0 3.7-1.2 4.4-2.2h.1l.1 2h2.1c-.1-1-.2-2.6-.2-3.9v-9zM349 219h2v13h-2zM350.1 213.6c-.9 0-1.5.6-1.5 1.5 0 .8.6 1.4 1.4 1.4.9 0 1.5-.6 1.5-1.4.1-.9-.5-1.5-1.4-1.5zM357.4 221h-.1l-.1-2h-2.1c.1 1-.1 2.2-.1 3.7v9.3h2v-7.3c0-.4.3-.8.4-1.1.3-1.8 1.3-3 3-3 .3 0 .6 0 .6.1v-2.2c0-.1-.1-.2-.4-.2-1.5 0-2.6 1.7-3.2 2.7zM365.3 213.6c-.9 0-1.5.6-1.5 1.5 0 .8.6 1.4 1.4 1.4.9 0 1.5-.6 1.5-1.4 0-.9-.6-1.5-1.4-1.5zM364 219h2v13h-2zM376.6 218.5c-2.1 0-3.5 1.5-4.1 2.5h-.1l-.1-2h-2.1c.1 1-.2 1.8-.2 3.2v9.8h3v-8.2c0-.4-.1-.8 0-1.1.4-1.3 1.5-2.4 3.1-2.4 2.2 0 2.9 1.7 2.9 3.8v7.8h2v-8.1c0-4.4-2.6-5.3-4.4-5.3zM394.3 219l-.1 2h-.1c-.6-1-1.8-2.4-4-2.4-3 0-5.8 2.4-5.8 6.8 0 3.6 2.3 6.6 5.5 6.6 2 0 3.4-.9 4.1-1.9h.1v.8c0 3.3-1.8 4.5-4.2 4.5-1.6 0-3-.5-3.8-1l-.6 1.8c1 .7 2.7 1.1 4.3 1.1 1.6 0 3.3-.4 4.6-1.6 1.3-1.1 1.7-2.9 1.7-5.9v-7.5c0-1.6.3-2.2.3-3.2h-2zm-.3 7.1c0 .4-.1.9-.2 1.3-.5 1.5-1.8 2.4-3.3 2.4-2.5 0-3.8-2.1-3.8-4.7 0-3 1.6-4.9 3.8-4.9 1.7 0 2.9 1.1 3.3 2.5.1.3.2.7.2 1.1v2.3z"/></svg>