<svg xmlns="http://www.w3.org/2000/svg" viewBox="0 0 400 400"><path d="M262.8 159.6v65.3c0 1-.8 1.7-1.7 1.7h-13.3c-1 0-1.7-.8-1.7-1.7v-65.3c0-1 .8-1.7 1.7-1.7h13.3c.9 0 1.7.7 1.7 1.7zm103.9-1.7h-14.9c-.8 0-1.4.5-1.7 1.2l-11.8 38.5-13-38.6c-.2-.7-.9-1.2-1.7-1.2h-10.4c-.8 0-1.4.5-1.7 1.2l-13 38.6-11.8-38.5c-.2-.7-.9-1.2-1.7-1.2h-14.9c-.6 0-1.1.3-1.4.7-.3.5-.4 1-.2 1.6l22 65.3c.2.7.9 1.2 1.7 1.2h11.9c.8 0 1.4-.5 1.7-1.2l12.8-38.1 12.8 38.1c.2.7.9 1.2 1.7 1.2h11.8c.8 0 1.4-.5 1.7-1.2l22-65.3c.2-.5.1-1.1-.2-1.6-.6-.5-1.1-.7-1.7-.7zm22.5 0h-13.3c-1 0-1.7.8-1.7 1.7v65.3c0 1 .8 1.7 1.7 1.7h13.3c1 0 1.7-.8 1.7-1.7v-65.3c0-1-.8-1.7-1.7-1.7zm-151 66.6c.8.8.1 2.2-1 2.2h-16.4c-.7 0-1.3-.3-1.7-.8l-2.7-3.4c-5.6 3.7-12.4 5.8-19.5 5.8-19.9 0-36.1-16.2-36.1-36.1s16.2-36.1 36.1-36.1 36.1 16.2 36.1 36.1c0 7.2-2.1 13.8-5.7 19.5l10.9 12.8zm-32.3-14.7l-7.1-8.6c-.7-.9-.1-2.2 1-2.2h14.9c.7-2.1 1.1-4.4 1.1-6.7 0-10.8-8-20-19-20s-19 9.3-19 20 8 19.9 19 19.9c3.4 0 6.5-.8 9.1-2.4zm-86.1 14.3c.4 2.7-.4 3.9-1.3 3.9s-2.1-1.1-3.6-3.3c-1.4-2.1-1.8-4.6-1.2-5.9.4-.8 1.4-1.2 2.5-.7 2.5.9 3.4 4.3 3.6 6zm-12.7 6c2.7 2.3 3.6 5.1 2.1 7.1-.8 1.1-2.1 1.6-3.7 1.6-1.5 0-3.2-.6-4.3-1.5-2.5-2.2-3.3-5.8-1.6-7.7.6-.8 1.7-1.2 2.9-1.2 1.6-.2 3.3.5 4.6 1.7zm-4.6 22.4c11.9 0 24.8 4.1 39.1 16.8 1.4 1.2 3.4-.3 2.1-1.9-14-17.7-27-21.1-39.9-24-15.9-3.5-24-12.4-29.7-22.2-1.1-1.9-1.6-1.6-1.7.9-.1 3 .1 7.1.8 11.1h-1.9c-22.7 0-41.1-18.4-41.1-41.1s18.2-41 40.9-41 41.1 18.4 41.1 41.1c0 1.6-.1 3.3-.3 4.8-2.9-.5-8.8-.6-13-.2-1.5.1-1.3.8-.2 1.1 13.5 2.4 22.9 10.9 25 26.1 0 .3.5.4.7.2 5.6-9.4 8.7-20.2 8.7-31.8.1-34.5-27.8-62.2-62-62.2s-62 27.8-62 62 27.8 62.1 62.1 62.1c9.1.1 18-1.8 31.3-1.8z"/></svg>