<svg xmlns="http://www.w3.org/2000/svg" viewBox="0 0 400 400"><path d="M171.7 157.8l-14.4 84.6h23.1l14.4-84.6zM137.9 157.9l-22.6 57.7-2.4-8.7c-4.5-10.5-17.1-25.6-32-35.1l20.7 70.6H126l36.3-84.5h-24.4z"/><path d="M104.2 163.9c-1.3-5.2-5.2-6.7-10.1-6.9H58.3l-.3 1.7c27.8 6.8 46.3 23 53.9 42.6l-7.7-37.4zM241.6 174c7.5-.1 13 1.5 17.3 3.2l2.1 1 3.1-18.4c-4.6-1.7-11.7-3.6-20.7-3.6-22.8 0-38.9 11.5-39 27.9-.1 12.2 11.4 19 20.2 23 9 4.2 12 6.8 12 10.5-.1 5.7-7.2 8.3-13.8 8.3-9.2 0-14.1-1.3-21.7-4.4l-3-1.4-3.2 19c5.4 2.4 15.4 4.4 25.7 4.5 24.3 0 40-11.3 40.2-28.9.1-9.6-6.1-17-19.4-23-8.1-3.9-13-6.5-13-10.5 0-3.4 4.1-7.2 13.2-7.2zM323.3 157.9h-17.8c-5.5 0-9.7 1.5-12.1 7l-34.3 77.6h24.2s4-10.4 4.8-12.7h29.6c.7 3 2.8 12.7 2.8 12.7h21.4l-18.6-84.6zm-28.5 54.5c1.9-4.9 9.2-23.7 9.2-23.7-.1.2 1.9-4.9 3.1-8.1l1.6 7.3s4.4 20.2 5.3 24.4h-19.2z"/></svg>