<?xml version="1.0" encoding="utf-8"?>
<!-- Generator: Adobe Illustrator 17.1.0, SVG Export Plug-In . SVG Version: 6.00 Build 0)  -->
<!DOCTYPE svg PUBLIC "-//W3C//DTD SVG 1.1//EN" "http://www.w3.org/Graphics/SVG/1.1/DTD/svg11.dtd">
<svg version="1.1" id="Layer_1" xmlns="http://www.w3.org/2000/svg" xmlns:xlink="http://www.w3.org/1999/xlink" x="0px" y="0px"
	 viewBox="0 0 120 120" enable-background="new 0 0 120 120" xml:space="preserve">
<path fill="#FFFFFF" stroke="#339966" stroke-width="2" stroke-miterlimit="10" d="M7.7,26.8l50.2-25c1.4-0.7,3-0.7,4.3,0l50.2,25.1
	c4.6,2.3,3,9.2-2.2,9.2H9.8C4.7,36,3.1,29,7.7,26.8z"/>
<path fill="#FFFFFF" stroke="#339966" stroke-width="2" stroke-miterlimit="10" d="M38,43.4c0,1.4-1.2,2.6-2.6,2.6H17.6
	c-1.4,0-2.6-1.2-2.6-2.6v-4.9c0-1.4,1.2-2.6,2.6-2.6h17.9c1.4,0,2.6,1.2,2.6,2.6V43.4z"/>
<path fill="#FFFFFF" stroke="#339966" stroke-width="2" stroke-miterlimit="10" d="M38,97.4c0,1.4-1.2,2.6-2.6,2.6H17.6
	c-1.4,0-2.6-1.2-2.6-2.6v-4.9c0-1.4,1.2-2.6,2.6-2.6h17.9c1.4,0,2.6,1.2,2.6,2.6V97.4z"/>
<rect x="21" y="46" fill="#FFFFFF" stroke="#339966" stroke-width="2" stroke-miterlimit="10" width="11" height="44"/>
<path fill="#FFFFFF" stroke="#339966" stroke-width="2" stroke-miterlimit="10" d="M71,43.4c0,1.4-1.2,2.6-2.6,2.6H51.6
	c-1.4,0-2.6-1.2-2.6-2.6v-4.9c0-1.4,1.2-2.6,2.6-2.6h16.9c1.4,0,2.6,1.2,2.6,2.6V43.4z"/>
<path fill="#FFFFFF" stroke="#339966" stroke-width="2" stroke-miterlimit="10" d="M71,97.4c0,1.4-1.2,2.6-2.6,2.6H50.6
	c-1.4,0-2.6-1.2-2.6-2.6v-4.9c0-1.4,1.2-2.6,2.6-2.6h17.9c1.4,0,2.6,1.2,2.6,2.6V97.4z"/>
<rect x="55" y="46" fill="#FFFFFF" stroke="#339966" stroke-width="2" stroke-miterlimit="10" width="10" height="44"/>
<path fill="#FFFFFF" stroke="#339966" stroke-width="2" stroke-miterlimit="10" d="M105,43.4c0,1.4-1.2,2.6-2.6,2.6H84.6
	c-1.4,0-2.6-1.2-2.6-2.6v-4.9c0-1.4,1.2-2.6,2.6-2.6h17.9c1.4,0,2.6,1.2,2.6,2.6V43.4z"/>
<path fill="#FFFFFF" stroke="#339966" stroke-width="2" stroke-miterlimit="10" d="M105,97.4c0,1.4-1.2,2.6-2.6,2.6H84.6
	c-1.4,0-2.6-1.2-2.6-2.6v-4.9c0-1.4,1.2-2.6,2.6-2.6h17.9c1.4,0,2.6,1.2,2.6,2.6V97.4z"/>
<rect x="88" y="46" fill="#FFFFFF" stroke="#339966" stroke-width="2" stroke-miterlimit="10" width="11" height="44"/>
<path fill="#FFFFFF" stroke="#339966" stroke-width="2" stroke-miterlimit="10" d="M109,106.4c0,1.4-1.2,2.6-2.6,2.6H13.6
	c-1.4,0-2.6-1.2-2.6-2.6v-3.9c0-1.4,1.2-2.6,2.6-2.6h92.9c1.4,0,2.6,1.2,2.6,2.6V106.4z"/>
<path fill="#FFFFFF" stroke="#339966" stroke-width="2" stroke-miterlimit="10" d="M118,115.4c0,1.4-1.2,2.6-2.6,2.6H4.6
	c-1.4,0-2.6-1.2-2.6-2.6v-3.9c0-1.4,1.2-2.6,2.6-2.6h110.9c1.4,0,2.6,1.2,2.6,2.6V115.4z"/>
</svg>
