<?xml version="1.0" encoding="utf-8"?>
<!-- Generator: Adobe Illustrator 17.1.0, SVG Export Plug-In . SVG Version: 6.00 Build 0)  -->
<!DOCTYPE svg PUBLIC "-//W3C//DTD SVG 1.1//EN" "http://www.w3.org/Graphics/SVG/1.1/DTD/svg11.dtd">
<svg version="1.1" id="Layer_1" xmlns="http://www.w3.org/2000/svg" xmlns:xlink="http://www.w3.org/1999/xlink" x="0px" y="0px"
	 viewBox="0 0 120 120" enable-background="new 0 0 120 120" xml:space="preserve">
<g>
	<g>
		<path fill="#FFFFFF" stroke="#339966" stroke-width="2" stroke-miterlimit="10" d="M73,112.8c-2.3,1.6-5.5,1-7.1-1.4L20.1,43.9
			c-1.6-2.3-1-5.5,1.4-7.1L63.7,8.1c2.3-1.6,5.5-1,7.1,1.4l45.9,67.6c1.6,2.3,1,5.5-1.4,7.1L73,112.8z"/>
		
			<rect x="29.6" y="46.9" transform="matrix(0.5615 0.8275 -0.8275 0.5615 79.1227 -38.1242)" fill="#FFFFFF" stroke="#339966" stroke-width="2" stroke-miterlimit="10" width="91.9" height="17.4"/>
	</g>
	<g>
		<path fill="#FFFFFF" stroke="#339966" stroke-width="2" stroke-miterlimit="10" d="M75.1,105.7c-1.8,2.2-5,2.5-7.2,0.8L4.4,55.1
			c-2.2-1.8-2.5-5-0.8-7.2L35.7,8.2c1.8-2.2,5-2.5,7.2-0.8l63.5,51.3c2.2,1.8,2.5,5,0.8,7.2L75.1,105.7z"/>
		<circle fill="none" stroke="#339966" stroke-width="2" stroke-miterlimit="10" cx="81.1" cy="60.4" r="7.1"/>
		<circle fill="none" stroke="#339966" stroke-width="2" stroke-miterlimit="10" cx="86.6" cy="64.9" r="7.1"/>
		<path fill="none" stroke="#339966" stroke-width="2" stroke-miterlimit="10" d="M37,47.3c-0.7,0.9-2,1-2.9,0.3l-8.7-7.1
			c-0.9-0.7-1-2-0.3-2.9l4.5-5.6c0.7-0.9,2-1,2.9-0.3l8.7,7.1c0.9,0.7,1,2,0.3,2.9L37,47.3z"/>
		
			<line fill="none" stroke="#339966" stroke-width="2" stroke-linecap="round" stroke-miterlimit="10" x1="18.6" y1="45.6" x2="28.2" y2="53.3"/>
		
			<line fill="none" stroke="#339966" stroke-width="2" stroke-linecap="round" stroke-miterlimit="10" x1="14.8" y1="50.3" x2="29.9" y2="62.5"/>
		
			<line fill="none" stroke="#339966" stroke-width="2" stroke-linecap="round" stroke-miterlimit="10" x1="33" y1="65.1" x2="41" y2="71.5"/>
		<g>
			
				<line fill="none" stroke="#339966" stroke-width="2" stroke-linecap="round" stroke-miterlimit="10" x1="40.5" y1="18.6" x2="55.5" y2="30.8"/>
			
				<line fill="none" stroke="#339966" stroke-width="2" stroke-linecap="round" stroke-miterlimit="10" x1="58.7" y1="33.4" x2="66.7" y2="39.8"/>
		</g>
		<g>
			
				<line fill="none" stroke="#339966" stroke-width="2" stroke-linecap="round" stroke-miterlimit="10" x1="31.3" y1="55.9" x2="40.1" y2="62.9"/>
		</g>
		
			<line fill="none" stroke="#339966" stroke-width="2" stroke-linecap="round" stroke-miterlimit="10" x1="43.2" y1="65.5" x2="52" y2="72.5"/>
		
			<line fill="none" stroke="#339966" stroke-width="2" stroke-linecap="round" stroke-miterlimit="10" x1="55.1" y1="75.1" x2="63.9" y2="82.2"/>
	</g>
</g>
</svg>
