<svg xmlns="http://www.w3.org/2000/svg" viewBox="0 0 155 60"><path fill="#FFF" fill-opacity="0" d="M0 0h155v60H0z"/><path d="M140 50H15c-2.8 0-5-2.3-5-5V15c0-2.8 2.3-5 5-5h125c2.8 0 5 2.3 5 5v30c0 2.7-2.2 5-5 5z"/><path fill="#A6A6A6" d="M140 10.8c2.3 0 4.2 1.9 4.2 4.2v30c0 2.3-1.9 4.2-4.2 4.2H15c-2.3 0-4.2-1.9-4.2-4.2V15c0-2.3 1.9-4.2 4.2-4.2h125m0-.8H15c-2.8 0-5 2.3-5 5v30c0 2.8 2.3 5 5 5h125c2.8 0 5-2.3 5-5V15c0-2.7-2.2-5-5-5z"/><path fill="#FFF" d="M78.1 31.8c-2.4 0-4.3 1.8-4.3 4.3 0 2.4 1.9 4.3 4.3 4.3s4.3-1.8 4.3-4.3c0-2.6-1.9-4.3-4.3-4.3zm0 6.8c-1.3 0-2.4-1.1-2.4-2.6s1.1-2.6 2.4-2.6c1.3 0 2.4 1 2.4 2.6 0 1.5-1.1 2.6-2.4 2.6zm-9.3-6.8c-2.4 0-4.3 1.8-4.3 4.3 0 2.4 1.9 4.3 4.3 4.3s4.3-1.8 4.3-4.3c0-2.6-1.9-4.3-4.3-4.3zm0 6.8c-1.3 0-2.4-1.1-2.4-2.6s1.1-2.6 2.4-2.6c1.3 0 2.4 1 2.4 2.6 0 1.5-1.1 2.6-2.4 2.6zm-11.1-5.5v1.8H62c-.1 1-.5 1.8-1 2.3-.6.6-1.6 1.3-3.3 1.3-2.7 0-4.7-2.1-4.7-4.8s2.1-4.8 4.7-4.8c1.4 0 2.5.6 3.3 1.3l1.3-1.3c-1.1-1-2.5-1.8-4.5-1.8-3.6 0-6.7 3-6.7 6.6 0 3.6 3.1 6.6 6.7 6.6 2 0 3.4-.6 4.6-1.9 1.2-1.2 1.6-2.9 1.6-4.2 0-.4 0-.8-.1-1.1h-6.2zm45.4 1.4c-.4-1-1.4-2.7-3.6-2.7s-4 1.7-4 4.3c0 2.4 1.8 4.3 4.2 4.3 1.9 0 3.1-1.2 3.5-1.9l-1.4-1c-.5.7-1.1 1.2-2.1 1.2s-1.6-.4-2.1-1.3l5.7-2.4-.2-.5zm-5.8 1.4c0-1.6 1.3-2.5 2.2-2.5.7 0 1.4.4 1.6.9l-3.8 1.6zM92.6 40h1.9V27.5h-1.9V40zm-3-7.3c-.5-.5-1.3-1-2.3-1-2.1 0-4.1 1.9-4.1 4.3s1.9 4.2 4.1 4.2c1 0 1.8-.5 2.2-1h.1v.6c0 1.6-.9 2.5-2.3 2.5-1.1 0-1.9-.8-2.1-1.5l-1.6.7c.5 1.1 1.7 2.5 3.8 2.5 2.2 0 4-1.3 4-4.4V32h-1.8v.7zm-2.2 5.9c-1.3 0-2.4-1.1-2.4-2.6s1.1-2.6 2.4-2.6c1.3 0 2.3 1.1 2.3 2.6s-1 2.6-2.3 2.6zm24.4-11.1h-4.5V40h1.9v-4.7h2.6c2.1 0 4.1-1.5 4.1-3.9s-2-3.9-4.1-3.9zm.1 6h-2.7v-4.3h2.7c1.4 0 2.2 1.2 2.2 2.1-.1 1.1-.9 2.2-2.2 2.2zm11.5-1.8c-1.4 0-2.8.6-3.3 1.9l1.7.7c.4-.7 1-.9 1.7-.9 1 0 1.9.6 2 1.6v.1c-.3-.2-1.1-.5-1.9-.5-1.8 0-3.6 1-3.6 2.8 0 1.7 1.5 2.8 3.1 2.8 1.3 0 1.9-.6 2.4-1.2h.1v1h1.8v-4.8c-.2-2.2-1.9-3.5-4-3.5zm-.2 6.9c-.6 0-1.5-.3-1.5-1.1 0-1 1.1-1.3 2-1.3.8 0 1.2.2 1.7.4-.2 1.2-1.2 2-2.2 2zm10.5-6.6l-2.1 5.4h-.1l-2.2-5.4h-2l3.3 7.6-1.9 4.2h1.9l5.1-11.8h-2zm-16.8 8h1.9V27.5h-1.9V40z"/><linearGradient id="a" gradientUnits="userSpaceOnUse" x1="31.8" y1="183.29" x2="15.017" y2="166.508" gradientTransform="matrix(1 0 0 -1 0 202)"><stop offset="0" stop-color="#00a0ff"/><stop offset=".007" stop-color="#00a1ff"/><stop offset=".26" stop-color="#00beff"/><stop offset=".512" stop-color="#00d2ff"/><stop offset=".76" stop-color="#00dfff"/><stop offset="1" stop-color="#00e3ff"/></linearGradient><path fill="url(#a)" d="M20.4 17.5c-.3.3-.5.8-.5 1.4V41c0 .6.2 1.1.5 1.4l.1.1 12.4-12.4v-.2L20.4 17.5z"/><linearGradient id="b" gradientUnits="userSpaceOnUse" x1="43.834" y1="171.999" x2="19.637" y2="171.999" gradientTransform="matrix(1 0 0 -1 0 202)"><stop offset="0" stop-color="#ffe000"/><stop offset=".409" stop-color="#ffbd00"/><stop offset=".775" stop-color="orange"/><stop offset="1" stop-color="#ff9c00"/></linearGradient><path fill="url(#b)" d="M37 34.3l-4.1-4.1V29.9l4.1-4.1.1.1 4.9 2.8c1.4.8 1.4 2.1 0 2.9l-5 2.7z"/><linearGradient id="c" gradientUnits="userSpaceOnUse" x1="34.827" y1="169.704" x2="12.069" y2="146.946" gradientTransform="matrix(1 0 0 -1 0 202)"><stop offset="0" stop-color="#ff3a44"/><stop offset="1" stop-color="#c31162"/></linearGradient><path fill="url(#c)" d="M37.1 34.2L32.9 30 20.4 42.5c.5.5 1.2.5 2.1.1l14.6-8.4"/><linearGradient id="d" gradientUnits="userSpaceOnUse" x1="17.297" y1="191.824" x2="27.46" y2="181.661" gradientTransform="matrix(1 0 0 -1 0 202)"><stop offset="0" stop-color="#32a071"/><stop offset=".069" stop-color="#2da771"/><stop offset=".476" stop-color="#15cf74"/><stop offset=".801" stop-color="#06e775"/><stop offset="1" stop-color="#00f076"/></linearGradient><path fill="url(#d)" d="M37.1 25.8l-14.6-8.3c-.9-.5-1.6-.4-2.1.1L32.9 30l4.2-4.2z"/><path opacity=".2" d="M37 34.1l-14.5 8.2c-.8.5-1.5.4-2 0l-.1.1.1.1c.5.4 1.2.5 2 0L37 34.1z"/><path opacity=".12" d="M20.4 42.3c-.3-.3-.4-.8-.4-1.4v.1c0 .6.2 1.1.5 1.4v-.1h-.1zM42 31.3l-5 2.8.1.1 4.9-2.8c.7-.4 1-.9 1-1.4 0 .5-.4.9-1 1.3z"/><path opacity=".25" fill="#FFF" d="M22.5 17.6L42 28.7c.6.4 1 .8 1 1.3 0-.5-.3-1-1-1.4L22.5 17.5c-1.4-.8-2.5-.1-2.5 1.5v.1c0-1.6 1.1-2.3 2.5-1.5z"/><g fill="#FFF" stroke="#FFF" stroke-width=".2" stroke-miterlimit="10"><path d="M52.1 24.3h-.7v-2h.6c.5-.4.8-1.2.8-2.3v-3h4v5.3h.7v2h-.7V23h-4.6v1.3zm1.4-4.3c0 .9-.2 1.7-.6 2.3h3v-4.5h-2.5V20zM63.4 22.2c-.6.6-1.3.9-2.2.9-.9 0-1.6-.3-2.2-.9-.6-.6-.9-1.3-.9-2.2s.3-1.6.9-2.2c.6-.6 1.3-.9 2.2-.9.9 0 1.6.3 2.2.9.6.6.9 1.3.9 2.2 0 .9-.3 1.6-.9 2.2zm-3.8-.5c.4.4 1 .7 1.6.7.6 0 1.2-.2 1.6-.7.4-.4.7-1 .7-1.7s-.2-1.3-.7-1.7c-.4-.4-1-.7-1.6-.7-.6 0-1.2.2-1.6.7-.4.4-.7 1-.7 1.7s.2 1.3.7 1.7zM68.2 23.1c-.9 0-1.6-.3-2.2-.9-.6-.6-.9-1.3-.9-2.2s.3-1.6.9-2.2c.6-.6 1.3-.9 2.2-.9.9 0 1.6.3 2.2 1l-.5.5c-.4-.5-1-.8-1.7-.8s-1.2.2-1.7.7c-.5.4-.7 1-.7 1.7s.2 1.3.7 1.7c.4.4 1 .7 1.7.7s1.3-.3 1.8-.9l.5.5c-.3.3-.6.6-1 .8-.4.2-.8.3-1.3.3zM73.7 23h-.8v-5.3h-1.7V17h4.1v.7h-1.7V23zM80.6 17l-2.3 5.1c-.3.7-.8 1.1-1.4 1.1-.2 0-.4 0-.6-.1l.2-.7c.1.1.3.1.4.1.2 0 .3 0 .4-.1.1-.1.2-.2.3-.4l.2-.5-2-4.4h.9l1.5 3.4 1.4-3.4h1zM81.5 23v-6h4.3v6H85v-5.3h-2.8V23h-.7zM87.2 23v-6h.8v2.6h3V17h.8v6H91v-2.7h-3V23h-.8zM98.1 22.2c-.6.6-1.3.9-2.2.9-.9 0-1.6-.3-2.2-.9-.6-.6-.9-1.3-.9-2.2s.3-1.6.9-2.2c.6-.6 1.3-.9 2.2-.9.9 0 1.6.3 2.2.9.6.6.9 1.3.9 2.2-.1.9-.4 1.6-.9 2.2zm-3.9-.5c.4.4 1 .7 1.6.7s1.2-.2 1.6-.7c.4-.4.7-1 .7-1.7s-.2-1.3-.7-1.7c-.4-.4-1-.7-1.6-.7s-1.2.2-1.6.7a2.413 2.413 0 0 0 0 3.4zM102.1 23v-6h2.2c.5 0 .9.2 1.2.5.3.3.5.7.5 1.2 0 .3-.1.5-.2.8-.1.2-.3.4-.6.5.3.1.5.3.7.5.2.2.3.5.3.9 0 .5-.2.9-.5 1.2-.4.3-.8.5-1.3.5h-2.3zm.8-3.4h1.4c.3 0 .5-.1.7-.3.2-.2.3-.4.3-.6s-.1-.4-.3-.6c-.2-.2-.4-.3-.7-.3h-1.4v1.8zm0 2.7h1.6c.3 0 .5-.1.7-.3.2-.2.3-.4.3-.7 0-.2-.1-.5-.3-.7-.2-.2-.4-.3-.7-.3H103v2z"/></g></svg>