<svg xmlns="http://www.w3.org/2000/svg" viewBox="0 0 48 48"><g fill="#F1005B"><path d="M31.2 12.8H16.8c-2.3 0-4.1 1.9-4.1 4.1v14.3c0 2.3 1.9 4.1 4.1 4.1h14.3c2.3 0 4.1-1.9 4.1-4.1V16.9c.1-2.3-1.8-4.1-4-4.1zM24 31.5c-4.1 0-7.4-3.3-7.4-7.4 0-4.1 3.3-7.4 7.4-7.4 4.1 0 7.4 3.3 7.4 7.4 0 4.1-3.3 7.4-7.4 7.4zm7.7-13.3c-1 0-1.8-.8-1.8-1.8s.8-1.8 1.8-1.8 1.8.8 1.8 1.8-.9 1.8-1.8 1.8z"/><path d="M24 19.8c-2.4 0-4.3 1.9-4.3 4.3s1.9 4.3 4.3 4.3 4.3-1.9 4.3-4.3-1.9-4.3-4.3-4.3z"/><path d="M24 0C10.7 0 0 10.7 0 24s10.7 24 24 24 24-10.7 24-24S37.3 0 24 0zm14.4 31.2c0 4-3.3 7.3-7.3 7.3H16.8c-4 0-7.3-3.3-7.3-7.3V16.9c0-4 3.3-7.3 7.3-7.3h14.3c4 0 7.3 3.3 7.3 7.3v14.3z"/></g></svg>