<svg xmlns="http://www.w3.org/2000/svg" viewBox="0 0 425 110"><g fill="#fff"><path d="M18 31.1h-4.4c.3 2 .5 3.6.5 4.9v17.7H2.8V2.3h11.3v14.5c0 2.2-.2 4.2-.5 6.1H18L31 2.3h12.3L30.1 22.8c-.8 1.5-2.1 2.9-3.7 4.1v.3c1.8 1.2 3.2 2.8 4.3 4.5l13.6 22H31.6L18 31.1zM79.9 40.2H62.2l-3.7 13.5H46.9L61.7 5.3c.2-.9.7-1.6 1.4-2.2.7-.5 1.6-.8 2.5-.8h10.7c2.1 0 3.5 1 4 3l14.8 48.5H83.6l-3.7-13.6zm-2.5-8.8l-4.3-15.7c-.6-2.5-.9-4.1-1-4.8h-2c-.1.5-.3 1.3-.5 2.4-.2 1.1-.4 1.9-.6 2.5l-4.3 15.7h12.7zM136.5 45v8.7H99V45l24.5-34H99.6V2.3H136V11l-24.5 34h25zM176.4 11.2H158c-1.4 0-2.5.3-3.1.9-.6.6-.9 1.6-.9 2.9v8.8h19.7v8.3H154v21.6h-11.4v-41c0-3.3 1-5.9 3.1-7.8 2.1-1.9 4.8-2.9 8.2-2.9 10.9 0 18.6.3 23.1.8l-.6 8.4zM193.9 53.7h-11.3V2.3h11.3v51.4zM245.8 2.3v47.3c0 2.7-1.3 4.1-4 4.1h-7.1c-1.1 0-2-.3-2.7-.8-.6-.5-1.3-1.4-1.9-2.6l-13.5-27.4c-1.7-3.6-2.7-6.3-3.1-8h-.8c.3 2.5.5 5.2.5 8.2v30.6h-10.8V6.4c0-2.7 1.4-4.1 4.1-4.1h6.9c1.1 0 2 .3 2.7.8.6.5 1.3 1.4 1.9 2.6l13 26.6c1.2 2.5 2.5 5.2 3.7 8.3h.7c-.3-3.9-.4-6.8-.4-8.6V2.3h10.8zM293.3 11.5h-15.4v42.2h-11.4V11.5h-15.4V2.3h42.1v9.2zM333.1 44.8l.5 8.3c-4.7.5-12.6.7-23.9.7-3.4 0-6.2-.9-8.2-2.8-2-1.9-3.1-4.4-3.1-7.6v-31c0-3.2 1.1-5.7 3.1-7.6 2-1.9 4.8-2.8 8.2-2.8 11.2 0 19.2.2 23.9.7l-.5 8.4h-19.8c-1.2 0-2.1.3-2.7.9-.5.6-.8 1.6-.8 2.9v7.8h20.5v8.2h-20.5V41c0 1.4.3 2.4.8 3 .5.6 1.4.9 2.7.9h19.8zM374.7 44.1l1 8.4c-4.5 1.4-10 2.1-16.5 2.1-8 0-13.5-2-16.8-6-3.2-4-4.8-10.9-4.8-20.6 0-9.8 1.6-16.7 4.8-20.6 3.2-4 8.8-6 16.8-6 5.8 0 10.9.6 15.4 1.7l-1 8.5c-4-.2-8.8-.4-14.5-.4-3.7 0-6.3 1.2-7.6 3.5-1.4 2.4-2.1 6.8-2.1 13.2 0 6.5.7 10.9 2.1 13.2 1.4 2.4 3.9 3.5 7.6 3.5 7 .2 12.2-.1 15.6-.5zM422.2 2.3v51.4h-11.3v-23h-18.2v23h-11.3V2.3h11.3V22h18.2V2.3h11.3z"/><g><path d="M7.8 95.6v.1c.3 0 .6.1.9.2.3.1.6.2.8.3.2.1.5.3.7.6.2.3.4.5.6.7.2.2.4.5.6.9.2.4.4.7.5 1 .1.2.3.6.5 1.2s.4 1 .5 1.3c.1.3.3.8.5 1.5s.4 1.2.6 1.6h-2.4c-.1-.2-.2-.6-.4-1.1-.3-.9-.5-1.5-.7-1.9-.1-.4-.3-.9-.6-1.6-.3-.6-.5-1.1-.7-1.4s-.4-.6-.7-1c-.3-.4-.6-.7-.8-.8-.3-.2-.6-.3-1-.4-.4-.1-.8-.2-1.2-.2H3.7c.1.7.2 1.3.2 1.9v6.5H1.7V87.1h2.2v5.6c0 .7-.1 1.4-.2 2h1.9c.6 0 1.1-.1 1.6-.4.5-.3.9-.6 1.2-.9.3-.3.7-.9 1-1.7.4-.8.7-1.4.8-1.9.2-.4.5-1.2.9-2.4.1-.2.1-.3.1-.4h2.3c-1 2.8-1.7 4.7-2.1 5.5-.9 1.7-2 2.7-3.4 2.9 0 .1-.1.1-.2.2zM17 94.2l-.2-1.6c2.3-.4 4.4-.6 6.1-.6 1.5 0 2.5.3 3.2.9.7.6 1 1.6 1 3.1v8.8h-1.7l-.3-2.1c-.6.6-1.4 1.2-2.3 1.6-.9.5-1.9.7-2.9.7-1.2 0-2.1-.3-2.7-.9-.7-.6-1-1.5-1-2.6v-1.4c0-1 .3-1.7.9-2.3.6-.5 1.5-.8 2.6-.8H25v-1.1c0-.8-.2-1.3-.6-1.7-.4-.3-1-.5-2-.5-1.2.2-3 .3-5.4.5zm1.5 6.4v.8c0 .7.2 1.1.5 1.4.3.3.8.5 1.5.5s1.4-.1 2.2-.5c.8-.3 1.6-.8 2.3-1.4v-2.5h-4.8c-1.2 0-1.7.6-1.7 1.7zM30.7 94.2l-.2-1.7c1.1-.3 2.4-.4 3.9-.4 2.1 0 3.6.2 4.4.7.8.5 1.2 1.3 1.2 2.7 0 .9-.2 1.6-.6 2.1-.4.5-1.1.7-2 .8v.1c1.1.1 1.9.4 2.4.9s.7 1.3.7 2.4c0 1.3-.4 2.2-1.2 2.6-.8.5-2.2.7-4.2.7-1.9 0-3.6-.1-5-.4l.2-1.7c1.5.1 3.1.2 4.7.2 1.3 0 2.1-.1 2.6-.4s.7-.8.7-1.5c0-.8-.2-1.3-.7-1.6-.5-.3-1.3-.4-2.5-.4h-3v-1.6h3c1.1 0 1.9-.1 2.3-.4.4-.3.6-.8.6-1.5s-.2-1.2-.7-1.4c-.5-.2-1.4-.3-2.7-.3-1.7-.1-2.9 0-3.9.1zM44.1 94.2l-.2-1.6c2.3-.4 4.4-.6 6.1-.6 1.5 0 2.5.3 3.2.9.7.6 1 1.6 1 3.1v8.8h-1.7l-.3-2.1c-.6.6-1.4 1.2-2.3 1.6-.9.5-1.9.7-2.9.7-1.2 0-2.1-.3-2.7-.9-.7-.6-1-1.5-1-2.6v-1.4c0-1 .3-1.7.9-2.3.6-.5 1.5-.8 2.6-.8H52v-1.1c0-.8-.2-1.3-.6-1.7-.4-.3-1-.5-2-.5-1.1.2-2.9.3-5.3.5zm1.4 6.4v.8c0 .7.2 1.1.5 1.4.3.3.8.5 1.5.5s1.4-.1 2.2-.5 1.6-.8 2.3-1.4v-2.5h-4.8c-1.1 0-1.7.6-1.7 1.7zM63.5 99.2H63l-3.6 5.7H57l4.2-6.5-3.9-6.1h2.4l3.2 5.2h.6l3.2-5.2h2.4l-3.9 6.1 4.2 6.5H67l-3.5-5.7zM81.1 103.1l.2 1.5c-1.2.4-2.6.6-4.3.6-2.2 0-3.7-.5-4.6-1.5-.9-1-1.3-2.7-1.3-5.1 0-2.4.5-4.1 1.4-5.1.9-1 2.4-1.5 4.6-1.5 1.7 0 3 .2 4 .6l-.3 1.4c-1.1-.1-2.3-.2-3.4-.2-1.5 0-2.5.3-3.1 1-.6.7-.9 1.9-.9 3.7 0 1.8.3 3.1.9 3.7.6.7 1.6 1 3.1 1 1.4.2 2.6.1 3.7-.1zM94.8 94.1h-4.5v10.8h-2.2V94.1h-4.6v-1.8h11.3v1.8zM97.8 94.2l-.2-1.6c2.3-.4 4.4-.6 6.1-.6 1.5 0 2.5.3 3.2.9.7.6 1 1.6 1 3.1v8.8h-1.7l-.3-2.1c-.6.6-1.4 1.2-2.3 1.6-.9.5-1.9.7-2.9.7-1.2 0-2.1-.3-2.7-.9-.7-.6-1-1.5-1-2.6v-1.4c0-1 .3-1.7.9-2.3.6-.5 1.5-.8 2.6-.8h5.2v-1.1c0-.8-.2-1.3-.6-1.7-.4-.3-1-.5-2-.5-1.1.2-2.9.3-5.3.5zm1.4 6.4v.8c0 .7.2 1.1.5 1.4.3.3.8.5 1.5.5s1.4-.1 2.2-.5c.8-.3 1.6-.8 2.3-1.4v-2.5h-4.8c-1.1 0-1.7.6-1.7 1.7zM122.7 92.3v12.6h-2.2v-5.8h-6.6v5.8h-2.2V92.3h2.2v5.1h6.6v-5.1h2.2zM136.1 103.1l.2 1.5c-1.2.4-2.6.6-4.3.6-2.2 0-3.7-.5-4.6-1.5-.9-1-1.3-2.7-1.3-5.1 0-2.4.5-4.1 1.4-5.1.9-1 2.4-1.5 4.6-1.5 1.7 0 3 .2 4 .6l-.3 1.4c-1.1-.1-2.3-.2-3.4-.2-1.5 0-2.5.3-3.1 1-.6.7-.9 1.9-.9 3.7 0 1.8.3 3.1.9 3.7s1.6 1 3.1 1c1.4.2 2.6.1 3.7-.1zM145 98.3c.5.1.9.2 1.2.3.4.1.7.3 1 .6l.8.8c.2.3.4.7.7 1.3.3.6.5 1.1.7 1.5.2.4.4 1.1.8 2h-2.3c-.3-.8-.5-1.3-.6-1.6-.1-.3-.3-.7-.5-1.3-.2-.5-.4-.9-.6-1.1-.1-.2-.3-.4-.6-.7-.2-.3-.5-.5-.7-.6-.2-.1-.5-.2-.8-.3-.3-.1-.6-.1-1-.1h-1.8c.1.6.1 1 .1 1.2v4.5h-2.2V92.3h2.2V96c0 .4 0 .9-.1 1.4h1.8c.6 0 1.1-.1 1.5-.3.4-.2.8-.6 1.2-1.1.4-.5.6-1 .9-1.5.2-.5.5-1.2.9-2.2h2.3c-.2.6-.4 1-.5 1.2-.1.2-.2.6-.4 1s-.3.8-.4.9l-.4.8c-.2.3-.3.6-.5.7l-.5.5c-.2.2-.4.3-.6.4-.2.1-.4.2-.7.3-.3.1-.6.2-.9.2zM153.1 94.2l-.2-1.6c2.3-.4 4.4-.6 6.1-.6 1.5 0 2.5.3 3.2.9.7.6 1 1.6 1 3.1v8.8h-1.7l-.3-2.1c-.6.6-1.4 1.2-2.3 1.6-.9.5-1.9.7-2.9.7-1.2 0-2.1-.3-2.7-.9-.7-.6-1-1.5-1-2.6v-1.4c0-1 .3-1.7.9-2.3.6-.5 1.5-.8 2.6-.8h5.2v-1.1c0-.8-.2-1.3-.6-1.7-.4-.3-1-.5-2-.5-1.1.2-2.9.3-5.3.5zm1.5 6.4v.8c0 .7.2 1.1.5 1.4.3.3.8.5 1.5.5s1.4-.1 2.2-.5c.8-.3 1.6-.8 2.3-1.4v-2.5h-4.8c-1.1 0-1.7.6-1.7 1.7zM169.8 99.5v-.1c-1-.1-1.7-.5-2.2-1.1-.4-.6-.7-1.4-.7-2.4 0-1.2.3-2.2 1-2.8.7-.6 1.9-.9 3.6-.9 2.5 0 4.3.1 5.5.2v12.5h-2v-4.6h-3.4c-1.2 0-2 .4-2.2 1.3l-1 3.4h-2.3l1.1-3.8c.5-1 1.3-1.5 2.6-1.7zm5.2-.9V94h-3.3c-1 0-1.7.2-2 .5-.4.3-.5.9-.5 1.8s.2 1.5.6 1.8c.4.4 1.1.5 2.1.5h3.1zM196.6 99.3h-7.3l-1.8 5.6h-2.3l5.7-17.2c.1-.4.4-.6.9-.6h2.4c.5 0 .7.2.9.6l5.7 17.2h-2.3l-1.9-5.6zm-.6-1.9l-2.2-7.1c-.2-.4-.3-.9-.4-1.4h-.7l-.4 1.4-2.2 7.1h5.9zM212.5 103.1l.2 1.5c-1.2.4-2.6.6-4.3.6-2.2 0-3.7-.5-4.6-1.5-.9-1-1.3-2.7-1.3-5.1 0-2.4.5-4.1 1.4-5.1.9-1 2.4-1.5 4.6-1.5 1.7 0 3 .2 4 .6l-.3 1.4c-1.1-.1-2.3-.2-3.4-.2-1.5 0-2.5.3-3.1 1-.6.7-.9 1.9-.9 3.7 0 1.8.3 3.1.9 3.7.6.7 1.6 1 3.1 1 1.4.2 2.6.1 3.7-.1zM224.9 103.1l.2 1.5c-1.2.4-2.6.6-4.3.6-2.2 0-3.7-.5-4.6-1.5-.9-1-1.3-2.7-1.3-5.1 0-2.4.5-4.1 1.4-5.1.9-1 2.4-1.5 4.6-1.5 1.7 0 3 .2 4 .6l-.3 1.4c-1.1-.1-2.3-.2-3.4-.2-1.5 0-2.5.3-3.1 1-.6.7-.9 1.9-.9 3.7 0 1.8.3 3.1.9 3.7.6.7 1.6 1 3.1 1 1.4.2 2.7.1 3.7-.1zM233.3 92c2.1 0 3.7.5 4.6 1.5.9 1 1.3 2.7 1.3 5.1 0 2.4-.4 4.1-1.3 5.1s-2.4 1.5-4.6 1.5c-2.2 0-3.7-.5-4.6-1.5-.9-1-1.3-2.7-1.3-5.1 0-2.4.4-4.1 1.3-5.1s2.4-1.5 4.6-1.5zm0 1.9c-1.4 0-2.3.3-2.9 1-.5.7-.8 1.9-.8 3.7 0 1.8.3 3.1.8 3.7.5.7 1.5 1 2.9 1s2.3-.3 2.8-1 .8-1.9.8-3.7c0-1.8-.3-3.1-.8-3.7-.5-.7-1.4-1-2.8-1zM254.8 108.6h-1.4l-.2-3.7h-10.6V92.3h2.1v10.8h6.2V92.3h2.2v10.8h1.7v5.5zM268.8 104.9h-2v-8.3-.9-.8h-.1c-.2.5-.5 1-.9 1.5l-6.4 8.5h-1.8V92.3h2v8.3c0 .5 0 1.1-.1 1.7h.1c.3-.6.6-1 .9-1.4l6.4-8.6h1.8v12.6zM272.8 94.2l-.2-1.6c2.3-.4 4.4-.6 6.1-.6 1.5 0 2.5.3 3.2.9s1 1.6 1 3.1v8.8h-1.7l-.3-2.1c-.6.6-1.4 1.2-2.3 1.6-.9.5-1.9.7-2.9.7-1.2 0-2.1-.3-2.7-.9-.7-.6-1-1.5-1-2.6v-1.4c0-1 .3-1.7.9-2.3.6-.5 1.5-.8 2.6-.8h5.2v-1.1c0-.8-.2-1.3-.6-1.7-.4-.3-1-.5-2-.5-1.1.2-2.9.3-5.3.5zm1.5 6.4v.8c0 .7.2 1.1.5 1.4.3.3.8.5 1.5.5s1.4-.1 2.2-.5c.8-.3 1.6-.8 2.3-1.4v-2.5H276c-1.1 0-1.7.6-1.7 1.7zM299.1 108.6h-1.4l-.2-3.7h-10.6V92.3h2.1v10.8h6.2V92.3h2.2v10.8h1.7v5.5zM313.1 104.9h-2v-8.3-.9-.8h-.1c-.2.5-.5 1-.9 1.5l-6.4 8.5h-1.8V92.3h2v8.3c0 .5 0 1.1-.1 1.7h.1c.3-.6.6-1 .9-1.4l6.4-8.6h1.8v12.6zM319.7 99.5v-.1c-1-.1-1.7-.5-2.2-1.1-.4-.6-.7-1.4-.7-2.4 0-1.2.3-2.2 1-2.8.7-.6 1.9-.9 3.6-.9 2.5 0 4.3.1 5.5.2v12.5h-2.1v-4.6h-3.4c-1.2 0-2 .4-2.2 1.3l-1 3.4h-2.3l1.1-3.8c.5-1 1.3-1.5 2.7-1.7zm5.2-.9V94h-3.3c-1 0-1.7.2-2.1.5-.4.3-.5.9-.5 1.8s.2 1.5.6 1.8c.4.4 1.1.5 2.1.5h3.2zM346.6 85.7v2.5c3 .1 5.1.7 6.3 1.9 1.2 1.1 1.8 3.1 1.8 5.8 0 2.7-.6 4.6-1.8 5.7-1.2 1.1-3.3 1.7-6.3 1.8v2.5h-2.3v-2.5c-3-.1-5.1-.7-6.3-1.8-1.2-1.1-1.8-3-1.8-5.7s.6-4.7 1.8-5.8c1.2-1.1 3.3-1.8 6.3-1.9v-2.5h2.3zm-2.2 15.7V90.1c-2.3.1-3.8.5-4.6 1.4-.8.8-1.3 2.3-1.3 4.4 0 2.1.4 3.5 1.3 4.3.8.7 2.3 1.2 4.6 1.2zm2.1-11.3v11.4c2.3-.1 3.8-.5 4.6-1.3.8-.8 1.3-2.2 1.3-4.3 0-2.1-.4-3.6-1.3-4.4-.8-.9-2.4-1.3-4.6-1.4zM368.9 104.9h-2v-8.3-.9-.8h-.1c-.2.5-.5 1-.9 1.5l-6.4 8.5h-1.8V92.3h2v8.3c0 .5 0 1.1-.1 1.7h.1c.3-.6.6-1 .9-1.4l6.4-8.6h1.8v12.6zM383.7 92.3v12.6h-2.2v-5.8H375v5.8h-2.2V92.3h2.2v5.1h6.6v-5.1h2.1zM397.7 89.1H392v15.8h-2.3V89.1H384v-2h13.7v2zM405.6 99.7h-5.9c.1 1.4.5 2.4 1.1 2.9.6.5 1.5.7 2.9.7s2.9-.1 4.4-.3l.2 1.5c-1.1.5-2.7.7-4.9.7s-3.7-.5-4.6-1.5-1.4-2.7-1.4-5.1c0-2.4.4-4.1 1.3-5.1s2.4-1.5 4.4-1.5c1.9 0 3.2.3 4.1 1 .9.7 1.3 1.7 1.3 3.1.1 2.4-.9 3.6-2.9 3.6zm-5.9-1.7h5.3c.9 0 1.4-.6 1.3-1.9 0-.8-.2-1.4-.7-1.7-.5-.3-1.3-.5-2.4-.5-1.3 0-2.2.3-2.8.9-.4.5-.6 1.6-.7 3.2zM417.4 99.2h-.5l-3.6 5.7h-2.4l4.2-6.5-3.9-6.1h2.4l3.2 5.2h.6l3.2-5.2h2.4l-3.9 6.1 4.2 6.5h-2.4l-3.5-5.7z"/></g><g><path d="M2 74h419v2H2z"/></g></g></svg>