<?xml version="1.0" encoding="utf-8"?>
<!-- Generator: Adobe Illustrator 17.1.0, SVG Export Plug-In . SVG Version: 6.00 Build 0)  -->
<!DOCTYPE svg PUBLIC "-//W3C//DTD SVG 1.1//EN" "http://www.w3.org/Graphics/SVG/1.1/DTD/svg11.dtd">
<svg version="1.1" id="Layer_1" xmlns="http://www.w3.org/2000/svg" xmlns:xlink="http://www.w3.org/1999/xlink" x="0px" y="0px"
	 viewBox="0 0 120 120" enable-background="new 0 0 120 120" xml:space="preserve">
<path fill="#FFFFFF" stroke="#339966" stroke-width="2" stroke-miterlimit="10" d="M113,7.4c0-1.3-1.1-2.4-2.4-2.4H10.4
	C9.1,5,8,6.1,8,7.4v94.2c0,1.3,1.1,2.4,2.4,2.4h100.2c1.3,0,2.4-1.1,2.4-2.4V7.4z"/>
<path fill="#FFFFFF" stroke="#339966" stroke-width="2" stroke-miterlimit="10" d="M102.6,104H19.4c-2,0-3.4-2.1-3.4-4.1V61.1
	C16,36.6,35.6,18,60.1,18h1.3C86.1,18,105,36.8,105,61.5v38.4C105,101.9,104.6,104,102.6,104z"/>
<path fill="#FFFFFF" stroke="#339966" stroke-width="2" stroke-miterlimit="10" d="M118,114.6c0,1.3-1.1,2.4-2.4,2.4H5.4
	c-1.3,0-2.4-1.1-2.4-2.4v-8.2c0-1.3,1.1-2.4,2.4-2.4h110.2c1.3,0,2.4,1.1,2.4,2.4V114.6z"/>
<path fill="#FFFFFF" stroke="#339966" stroke-width="2" stroke-miterlimit="10" d="M75.1,30.6l-0.2-0.2C66.3,23,53.6,23,45,30.3
	l-0.2,0.2c-6.1,5.2-10,12.5-10.8,20.4l-2,17.5c-0.3,3,1.5,5.8,4.4,6.7l23.6,7.2l23.6-7.2c2.9-0.9,4.7-3.7,4.4-6.7l-2-17.5
	C85.1,43.1,81.2,35.8,75.1,30.6z"/>
<g>
	<path fill="#FFFFFF" stroke="#339966" stroke-width="2" stroke-miterlimit="10" d="M78.1,64H75V53h3.1c2.2,0,2.9,1.6,2.9,4.2v1.9
		C81,61.6,80.3,64,78.1,64z"/>
</g>
<g>
	<path fill="#FFFFFF" stroke="#339966" stroke-width="2" stroke-miterlimit="10" d="M42.7,53H45v11h-2.3c-2.2,0-4.7-1.9-4.7-4.4
		v-1.9C38,55.1,40.4,53,42.7,53z"/>
</g>
<path fill="#FFFFFF" stroke="#339966" stroke-width="2" stroke-miterlimit="10" d="M70,78.8V71H50v7.7c0,2.8-1.8,5.3-4.4,6.3
	l-11.8,4c-3.1,1.1-5.8,4-5.8,7.3v7.7h62v-7.7c0-3.3-1.6-6.2-4.7-7.3l-10.9-4C71.7,84.1,70,81.6,70,78.8z"/>
<path fill="#FFFFFF" stroke="#339966" stroke-width="2" stroke-miterlimit="10" d="M44.4,85.9l0.6,0.8c4.3,5.5,9.5,10.2,15.3,13.9
	l0.1,0.1l0.1-0.1c5.9-3.7,11.1-8.4,15.3-13.9l0.6-0.8"/>
<path fill="#FFFFFF" stroke="#339966" stroke-width="2" stroke-miterlimit="10" d="M71.7,40.3l-3.2,2.2c-7.1,4.9-15.6,7.3-24.2,6.7
	l-1.8-0.1l0.9,12.6c0.3,3.8,2.3,7.2,5.5,9.3l5.6,3.7c3.5,2.3,8,2.3,11.4,0l5.6-3.7c3.2-2.1,5.2-5.5,5.5-9.3l0.9-12.6l0,0
	c-3.1-1.6-5.3-4.6-6-8L71.7,40.3z"/>
<path fill="#FFFFFF" stroke="#339966" stroke-width="2" stroke-miterlimit="10" d="M71.9,55.3"/>
<path fill="#FFFFFF" stroke="#339966" stroke-width="2" stroke-miterlimit="10" d="M48.9,82.7l5.6,3.7c3.5,2.3,8,2.3,11.4,0l5.6-3.7
	"/>
<path fill="#FFFFFF" stroke="#339966" stroke-width="2" stroke-miterlimit="10" d="M44.4,63.4"/>
<path fill="#FFFFFF" stroke="#339966" stroke-width="2" stroke-miterlimit="10" d="M59.9,84.2"/>
<path fill="#FFFFFF" stroke="#339966" stroke-width="2" stroke-miterlimit="10" d="M62.6,104c0.4-4-0.5-9.9-2.5-14.6L60,89.2
	l-0.1,0.2c-3.8,4.2-6.2,10.6-7.2,14.6H62.6z"/>
<path fill="#FFFFFF" stroke="#339966" stroke-width="2" stroke-miterlimit="10" d="M57.8,104c-0.4-4,0.5-9.9,2.5-14.6l0.1-0.2
	l0.1,0.2c3.8,4.2,6.2,10.6,7.2,14.6H57.8z"/>
<circle fill="#FFFFFF" stroke="#339966" stroke-width="2" stroke-miterlimit="10" cx="16.8" cy="14" r="3.6"/>
<circle fill="#FFFFFF" stroke="#339966" stroke-width="2" stroke-miterlimit="10" cx="104.2" cy="14" r="3.6"/>
</svg>
